<svg xmlns="http://www.w3.org/2000/svg" viewBox="0 0 390 730" width="390" height="730" fill="none">
  <g stroke="currentColor" stroke-miterlimit="10" stroke-width="1.4">
    <path
      d="M280.51 587.93c1.05.35 5.6 3.14 20.27-.35 14.67-3.84 19.56-11.53 16.07-19.91-3.5-8.39-16.77-12.23-22.71-11.53-3.5.7-6.64 2.1-9.08 3.84-.35-.7-3.5-4.54-4.9-3.84-1.04.7-.7 5.94-.34 8.73l-1.75 2.8" />
    <path
      d="M309.5 559.98c-.69-2.8-2.44-8.03-3.83-8.38-1.4-.35-3.15 4.89-3.15 5.24m-2.8 8.73c.36 1.05-2.09 2.1-2.79-.35.35 2.45-2.8 2.8-2.8 1.4m4.55-10.13c-6.64-4.9-5.94-26.2-20.61-35.63-14.67-9.44-27.6-2.8-29.34-1.75m43.66 45.41c1.05 1.4-.35 3.85-4.19 5.6-3.84 1.74-5.94.7-6.64-.36-1.74-3.14 8.74-8.38 10.83-5.24Zm7.34-2.44c-.7 1.4 1.4 3.5 5.24 4.19 4.19.7 5.59-1.05 5.94-2.1 1.04-3.49-10.13-5.93-11.18-2.1Z" />
    <path
      d="M287.5 589.33c2.1 2.79 13.63 12.57 13.63 15.71 0 3.15-4.55 3.5-8.39 1.4-3.84-2.1-22.7-17.12-29.34-25.15-13.98-17.12-22.7-32.49-24.46-55.2-1.74-22.7-3.49-24.45-2.8-27.24.7-2.8 4.2-2.8 5.6-1.75 2.8 2.8 6.98 10.83 9.08 20.96m53.8 68.47c4.89 2.45 15.72 7.34 18.51 7.34 2.8-.35 3.5-2.8 1.4-5.24-2.1-2.45-9.43-6.64-10.83-7.34m-44.01-64.28c-.35-2.44 1.74-18.51 5.58-20.96 4.2-2.8 5.6.7 5.6 2.8 0 2.1-1.05 20.6.7 24.45m-25.86-6.98c-1.75-4.9-5.94-33.2 1.4-34.94 7.33-1.75 4.2 12.58 4.54 19.22.35 4.19.7 9.08 1.75 15.02m32.49 89.08c.7.34 2.44 2.1 1.04 2.8m1.75-3.5c.35.35 1.75 1.04 1.75 2.8m21.3-15.73c.7 0 1.75 1.4 1.4 2.45m0-3.85c1.4.35 2.1 2.1 2.45 2.8" />
    <path
      d="m283.3 560.68-1.74-1.05v2.45m23.4-5.6.7-1.74 1.05 2.45m16.07 256.4 3.15-.34 22.7-1.4c3.5-.35 5.94-4.54 2.45-6.64-3.84-2.1-10.83-1.05-12.93-3.84-1.74-2.8-2.44-12.92-13.62-16.42m-25.85 35.28 7.34-1.4 8.73-2.79m-5.24-77.55c-4.2-.35-12.93-.35-17.12.7-.7-2.1-3.84-6.99-4.54-6.99-1.05 0-3.5 8.04-3.5 10.13-2.44 2.45-4.19 6.3-4.53 12.93 0 4.89-.7 11.18-2.45 14.67-1.75 3.15-9.78 22-14.32 26.2-4.54 4.2-6.29 11.53-6.99 18.87-.35 2.79-3.84 8.03-6.64 11.17-2.8 3.15-2.8 5.94-1.04 7.34 1.4 1.05 4.54 0 7.33-2.45 3.15-2.8 12.58-9.08 14.33-9.78 1.4 0 10.13.7 20.26 0M239.64 499.9c1.05-.35 2.8.7 2.8 1.74 0 .7-1.4 1.4-2.1.7-.7 1.05-2.1 1.05-2.1.35-.34-1.05.35-2.8 1.4-2.8Zm38.08-1.75c1.05.35 1.4 2.45 1.05 3.14-.35.7-1.75.35-2.1-.7-1.05.7-2.1-.34-1.4-1.04.35-.7 1.75-1.75 2.45-1.4Z" />
    <path
      d="m311.95 737.8 1.4-2.45.7 3.49m-29 57.64c0 3.14 2.1 16.42 2.8 19.91 1.05 4.2 3.5 6.64 6.29 6.64 3.14 0 5.59-2.45 4.54-3.84-1.05-1.4-3.5-17.12-2.8-19.92m4.2 20.97c5.24 3.84 19.9 11.17 24.8 15.02 3.5 2.44 10.48.7 8.04-3.85-3.15-5.24-20.27-12.22-23.41-13.27m-59.39 11.88c-.7.7-.7 2.8 1.05 3.49m42.62-13.63c.35.7.7 2.45-1.05 3.15m3.84-3.5c0 .36 1.05 1.05.35 2.8m21.66-5.94c.35.7.7 2.45-1.74 3.15m4.54-3.15c.7.7 1.05 2.8 0 3.5m29-12.58c1.04.7 1.74 2.1 1.04 3.14m-53.1-56.94c-.7 1.75 2.8.7 2.8-1.05 0 1.4 3.49 2.8 3.14.7m2.44-63.92 3.15-1.4c2.1-.7 13.62-5.24 23.06.7m7.68 17.11c-1.4 5.6-10.83 13.63-31.44 6.64-16.77-5.24-14.32-15.02-5.59-20.96" />
    <path
      d="M337.46 692.73c0-2.45-.35-9.43-2.1-10.83-1.4-1.75-4.9 4.54-5.24 5.24m-13.27-1.4c-.35-2.44-1.05-6.29-2.1-6.29s-5.24 6.64-5.94 8.39m4.54 6.98v-1.4c.35 0 1.4.36 1.4 1.06l-1.4.34Zm0 0-9.08 4.54c-1.05-.7-1.4-1.04-2.1-.7-.7.36-.7 2.1 0 2.8m15.72-7.34c-1.74 2.1 11.88 6.3 13.28 3.85 1.75-2.8-10.83-7.69-13.28-3.85Zm-5.94-1.4c-1.4 1.75-9.78-.34-8.38-2.44 1.4-2.1 10.48.7 8.38 2.45Z" />
    <path
      d="M318.94 685.74c5.6-5.59 7.34-18.51 15.37-26.9a30.74 30.74 0 0 1 20.96-9.78c.35-5.59 1.75-10.48-3.5-25.15-5.23-14.67.36-26.9 3.5-32.84 2.1-4.19 5.24-5.94 7.69-4.89 2.1.7 3.84 3.84 2.1 7.34-1.75 3.5-5.94 13.27-5.25 20.26.7 6.99 7.69 21.66 4.55 36.33 5.24 2.1 12.92 8.03 13.62 17.47.7 9.08-2.45 14.67-3.5 19.56-1.04 4.89-2.1 15.72-6.28 20.6-3.5 4.2-7.69 3.85-7.34-2.44.35-10.13-2.8-26.9 6.99-30.74" />
    <path
      d="M360.51 694.48c-2.8 6.28-11.88 17.11-14.32 19.9-2.1 3.15-8.73 17.12-15.02 16.08-5.94-.7 3.5-14.68 4.54-18.52m-27.95 0c-5.94 1.4-23.05 3.84-25.85-2.1-2.1-3.84 13.28-4.19 15.72-4.88m-13.97 6.63c-.7-1.05 1.05-1.4 3.14-2.1m47.16 17.12-.35 3.15m-2.44-3.5s-1.4 2.8-1.4 3.5M365.05 706c-.7 1.05-.35 3.15 0 3.85m-3.14-3.5c-.7 1.4-.35 2.8-.35 2.8m-39.48-15.72-1.4 3.49m-13.62-6.99-1.4 2.8M42.27 500.24a18.87 18.87 0 0 0-12.57 9.44c-5.59 9.78 2.1 20.26 15.37 20.26 10.48 0 19.22-6.29 19.92-13.98.7-7.68-7.34-19.2-22.71-15.72Z" />
    <path d="m44.71 508.63 1.05.35 1.05-.35m-1.4.7s-.7 5.94.35 7.68" />
    <path
      d="M27.95 533.43c2.8 2.1 35.98 1.05 38.07-1.75 2.1-2.79 2.45-26.54 1.75-30.74-.35-1.04 3.14-2.8 2.8-6.28-.35-3.5-11.88-8.74-25.86-7.34-14.32 1.05-22 7.69-22.35 10.83-.35 2.8 2.44 4.54 2.8 5.24.34.7 0 27.95 2.79 30.04Z" />
    <path
      d="M25.15 535.88c3.5 4.89 42.27 2.1 44.02-1.75 2.44-5.59 2.44-26.55 2.1-32.14 0-1.4 3.84-3.5 2.44-8.38-1.4-4.9-13.28-11.53-29.7-10.13-17.11 1.4-24.8 9.43-25.5 12.92-1.04 5.6 3.5 8.39 3.5 9.09 0 2.1-.35 25.15 3.14 30.39Z" />
    <path
      d="M35.28 538.32c-2.1 8.04-1.05 29.35-1.05 32.84-.34 3.84-3.49 7.34-2.79 9.43.7 2.45 5.59 2.8 8.03.35 2.45-2.44 4.2-9.08 4.2-15.02m8.03 0v6.64c-.35 4.19-3.5 7.33-2.8 9.43 1.05 2.44 5.6 2.8 8.04.35 2.1-2.1 4.9-11.53 4.54-17.47m9.78-47.16c9.09 6.29 10.13 25.85 10.83 31.44.7 5.6 3.15 17.82-1.04 22.36-3.85 4.54-7 5.59-9.79 8.73-3.14 3.15-6.28 9.43-9.08 8.74-3.14-.7-2.44-4.9 2.45-11.53-1.4-6.99.35-23.4 11.18-22.7M59.39 577.8c1.65-.22 3.29-.57 4.89-1.05m-22.7.35 8.03 1.05" />
    <path
      d="M33.89 556.49c-3.85 2.8-3.15 13.62-4.2 15.72-1.04 2.1-9.43 8.38-6.63 11.18 2.1 2.1 5.93-.35 8.38-2.8" />
    <path
      d="M30.4 567.67c-8.4 1.05-24.46.7-28.65 2.44-4.2 1.75-3.15 7.34.35 8.04 3.84.7 17.11-.7 23.75-2.1m27.6 4.54c-1.05.7-1.4 3.15-.35 3.5m-2.45-4.2c-.7.35-1.4 2.1-1.04 3.15m-13.63-4.2c-.7.36-1.05 2.45 0 3.5m-2.44-3.84c-1.05.7-1.05 1.74-1.05 3.14m30.04 3.84c-.7.7-1.05 3.15 0 3.5m-37.38-8.04c-1.4.7-2.1 2.1-1.4 2.8m110.4-61.49c3.49-2.44 13.97-15.72 14.67-17.46 1.04-2.1 3.49-9.44 4.89-10.48 1.4-.7 2.44 4.54 2.8 5.59 1.39-.7 9.42.35 15.01 2.44 1.75-.7 3.15-3.84 4.2-3.84 1.04.35 0 6.99 0 8.38 0 1.05 3.14 6.3 3.14 8.74.35 2.8-2.1 9.08-9.08 14.67-1.4.7-1.05 4.54 5.94 4.54 6.98 0 15.72-9.78 14.67-13.28-.7-3.84-6.3-5.93-2.8-9.08 3.15-3.14 9.09 2.1 10.83 7.34 1.75 5.94-2.8 14.32-10.48 19.91-6.98 5.59-11.88 6.29-12.57 8.03-.7 1.05 2.79 18.52 3.84 20.97 1.05 2.44 5.59 4.19 5.59 6.63 0 2.45-6.3 4.54-10.48 1.05-4.2-3.84-8.39-19.56-9.78-21.3-1.05-1.4-26.55-.7-27.6-.36-1.4 0-5.94 17.82-7.34 20.61-1.74 3.85-6.63 3.15-7.33.35-1.4-3.84 1.4-18.86 2.1-23.75 1.04-5.24-.36-16.07 3.14-23.4-4.9-5.25-10.13-10.84-9.44-19.22 1.05-8.39 10.49-13.97 13.63-13.97 3.14 0 5.59 2.1 4.54 4.19-1.05 2.1-5.94 3.49-8.38 6.98-2.45 3.5-3.85 6.99 6.28 15.72Z" />
    <path
      d="m161.4 514.22.7 1.05 1.04-.7m-.35 206.8 3.14 1.4c7.34 3.5 27.25 18.17 51 11.53m-82.09-51.7c-2.1 4.19-2.1 14.67 3.15 22.7 2.1 3.5 6.28 6.64 12.22 9.79m8.74-42.62c-5.94-.35-12.58 1.74-17.47 4.54m32.49 9.78c-.35-1.75-1.05-9.08-7.34-12.58m56.94 67.77c-9.43 9.78-10.13 11.88-10.48 15.72-.35 4.2-9.78 5.6-9.43-3.49.35-9.08 8.74-18.51 14.67-19.56" />
    <path
      d="M173.27 684.34c3.14 1.75 9.78.35 24.8 2.45 15.02 2.1 25.85 6.29 32.14 17.12 4.54 3.49 10.83 17.46 0 30.74" />
    <path
      d="M195.98 719.63c-.7 5.59 6.63 13.27 14.32 14.32 7.68 1.05 9.78 0 11.18 3.14 1.4 3.15 4.19 11.88 8.03 13.63 3.84 1.74 4.54-2.1 3.5-5.94-1.05-3.84-4.9-16.77-4.55-19.56.35-2.8 1.75-5.6.7-9.09m-19.21 23.76c-5.94 3.14-18.51 9.78-22 7.68-3.85-2.1-.36-6.63 9.42-11.87m-41.22-26.55c-3.5 3.49-11.88 12.57-15.02 14.67-3.14 2.1-3.5 5.59-1.75 6.98 1.75 1.75 8.39-1.4 14.68-4.19 5.94-3.14 17.81-11.18 20.26-13.97m-31.1-1.75c-5.58 2.1-22.7 8.04-25.14 2.8-1.75-3.85 16.06-9.09 18.16-10.83m30.04-28.65c-.35-3.14-1.74-7.68-2.8-8.73-1.04-.7-4.18 5.59-4.53 6.99M141.48 677a22 22 0 0 0-6.99-4.54c-1.05-.35-.35 7.68.35 10.13" />
    <path
      d="m139.03 678.4-2.1-1.74.36 3.5m24.1-7.7 1.4-2.44 1.05 3.14m-12.58 17.12c.35 1.05 2.8 0 2.45-2.44.35 2.44 3.49 2.44 2.8.7m-4.2-1.75 1.05.7.7-1.05m-11.53 41.22c-.7 0-1.75 2.1-1.05 3.14m-1.4-4.19c-.35.35-1.4 1.05-1.74 2.1m-16.07-16.42-1.75 2.45m0-3.5c-.35.35-2.1 1.05-2.44 1.75m112.48 33.19c.35 1.04 1.75 2.8 2.8 2.1m-4.55 0c.35.7 1.05 2.44 2.45 2.79m-40.17-6.3c-.7.36-2.45 1.75-1.75 3.15m-.35-4.89c-1.05.7-2.1 2.1-2.45 3.15m-21.66-64.98.7 2.8m-20.96 2.1 1.05 2.78m31.8 90.83c0 1.4 4.18 1.05 4.18-1.75.7 1.75 4.54 1.4 3.85-1.04m1.74-1.4a8.44 8.44 0 0 1 7.34-2.1m-18.87 6.3c-1.74-.36-4.89.7-5.93 2.09m-1.05 16.77c.7.34 1.4 2.1 1.05 4.89-.35 2.8 2.1 4.19 4.54 3.49 4.19-1.4 5.59-12.23.7-15.02-4.9-2.8-9.09 1.05-13.28 5.24-4.2 4.2-2.1 8.03.35 9.08 2.45 1.05 6.29-1.05 7.34-2.1m29.69-6.98c-.7 1.05-1.05 4.54-3.14 6.29m0 0c-1.75 1.4-6.64 2.44-5.94-4.2.7-6.98 5.94-12.57 10.13-11.17 4.19 1.4 5.59 6.63 4.19 11.17m-8.38 4.2c-.7 2.44 1.74 5.24 3.49 5.59" />
    <path
      d="M165.58 789.84c-.7-2.8-4.54-6.63-7.68-6.29-3.15.7 1.4-7.68-.7-10.13-2.1-2.44-7.34 8.04-8.03 16.07m46.1-18.51c3.15-1.4 6.64-3.14 7.34-2.8.7.35-1.4 6.3-1.4 6.3m-32.48 4.18c-3.5-1.04-6.29-1.04-6.99-.7-.7.36 2.1 4.55 3.5 5.6m29.34 16.76c-1.05 1.05-1.05 3.84-.35 3.84m-2.8-4.54c-.34.7-1.04 2.8-.7 3.85m-20.6 2.1c1.04.34 2.1-1.06 2.44-2.1m1.05 3.49c.7-.35 1.4-2.45 1.4-3.14m-30.75-27.25a2.45 2.45 0 0 1 1.4 2.1m9.78-4.55c.7.7.7 1.4.35 2.45m85.24-139.04a22.7 22.7 0 0 1 9.78-3.84c.7-4.2 0-5.94 1.05-6.64 1.05-.7 5.59 3.5 6.64 8.04 3.14 1.4 11.87 3.84 16.42 14.32 4.54 2.45 6.98 4.54 7.33 5.94.35 1.05-6.29 1.4-7.33 1.75 0 2.8-5.25 18.51-26.2 20.96-18.87 2.1-24.46-5.24-25.16-9.78" />
    <path
      d="M240.7 672.12c1.74-5.24-10.14-11.53-15.38-11.18-6.29.7-4.54 8.38 5.94 11.88m1.4-20.96c-3.15-2.1-9.44-1.4-9.78 2.44-.35 3.84 12.92 8.38 17.11 5.6 4.9-3.85-1.75-13.28-3.5-15.03m-9.77-7.34c-2.1.7-7.69 5.6-.35 13.28m22.7-16.77c-1.4-2.8-6.28-4.9-8.38-7.68-2.1-2.45-14.32-16.77-25.5-19.22-11.18-2.8-23.06-5.59-29.34-10.83-6.3-5.24-10.48-4.89-12.23-3.14-1.4 1.75-1.05 4.89 3.5 8.38a44.35 44.35 0 0 1 10.12 12.23 21.66 21.66 0 0 0 15.37 9.43" />
    <path
      d="M186.2 612.38c-3.15-1.05-11.18-9.08-14.68-10.83-3.84-2.1-6.64-.35-5.94 3.85.7 4.19 9.44 10.48 11.88 14.32 2.1 3.5 6.99 15.02 13.63 22.7 6.28 7.69 16.06 15.03 31.09 23.76M208.9 605.4c-1.4-3.85 2.8-8.74 9.43-8.04 6.3.35 15.37 5.24 20.26 2.44 5.25-3.14.35-8.73 5.25-10.82 4.88-2.1 9.43 5.24 6.63 13.27-2.8 7.69-11.88 8.73-18.51 6.99-6.99-2.1-13.63-5.94-15.37-1.75m8.38 44.02c0 1.04 1.4 1.74 2.8 2.1m-4.9 0c.35 1.04 2.1 1.74 3.15 2.09m-4.2 9.43c1.06-.35 2.8.35 3.5.7m-3.14-3.5c1.4-.7 3.49.35 4.19 1.05m-50.66-71.26 2.1 2.8m-4.54-.7c0 .7 1.4 1.74 2.1 2.44m-7 4.2c-.34 1.04 1.06 2.44 1.75 2.79m-4.19-.7 1.75 2.44m90.13 43.67v1.75l1.75-.35m-1.4.35-3.85 3.14M58.34 641.03c3.14-3.85 10.48-5.6 13.27-3.5 3.15 2.1 1.4 16.07-4.54 17.12-6.29 1.4-4.19-7.68-3.14-9.78m182.7-4.54c-1.05 1.05-.35 3.14 2.44 5.94 2.1 2.1 4.55 2.8 5.6 2.44 1.4-.35.7-3.5-2.8-6.29-1.75-1.74-4.54-2.8-5.24-1.74v-.35Zm24.45 18.86c-.7 1.05-2.8.7-6.28-1.4-2.45-1.4-3.85-3.49-3.5-4.89 0-1.4 3.14-1.4 6.64 1.05 2.44 1.75 3.84 4.2 3.14 5.24Z" />
    <path
      d="M66.72 632.3c-3.5-2.45-8.38-.7-11.53 4.19-3.49 5.24-5.58 12.57-1.4 15.72 4.2 3.49 9.09-1.75 9.09-1.75m34.23 3.14c-2.79 4.54-11.17 7.69-13.62 3.15-2.44-4.54 8.38-13.63 13.62-11.88 4.9 1.4 4.9 7.34 3.5 10.83" />
    <path
      d="M61.83 631.25c-2.1-3.15-1.74-9.79 7.34-19.22.7-5.24 0-8.73.7-9.78.7-.7 5.94 3.84 6.98 5.59 2.45-1.4 14.68-3.5 18.52-1.75 0 0-1.05-6.29 0-6.29.7-.34 7.33 4.2 8.38 10.84 3.84 3.84 6.64 12.22 4.9 20.6-1.4 8.39-3.15 12.93-3.15 12.93.7 3.15 2.8 12.58-5.94 19.91-8.73 7.34-11.53-1.74-10.83-5.24M55.2 636.48c-6.98 0-22.35 4.2-24.8 18.17-2.44 14.32 4.2 24.8 11.18 27.6" />
    <path
      d="M68.82 673.51c-2.1-4.19-10.83-6.63-19.56 1.75 0-4.2-2.1-14.67-7.34-12.23-4.54 2.1-.7 7-.35 12.93.35 6.29-.35 9.78 2.8 11.18 2.79 1.4 3.84 0 7.33 1.05 4.9 1.4 26.2 5.59 40.52-21.31m-48.2-27.95c-1.4-3.5-5.6-4.54-8.74-4.54-3.84.35-9.08 5.94-9.43 12.58-3.5-2.8-10.13-6.3-12.23-3.5-2.1 2.8 5.6 7.34 9.09 11.88 2.1 3.14 5.59 5.24 7.33 3.5m2.1 12.92c-6.29 1.75-16.77-1.4-24.8-4.9-8.04-3.84-14.33-5.23-16.07-2.09-1.75 3.14 2.44 10.83 16.76 15.02a60.79 60.79 0 0 0 30.4.35m35.63-60.43-.35 2.8m22.7-3.85.36 2.45m-14.33 4.19c0 1.4 3.5 1.05 3.5-1.05.35 2.1 2.8 2.1 3.14 1.05m-25.85 27.6c1.05 1.04 3.5-1.05 3.5-2.8m0 4.54c1.74-.7 2.09-2.44 2.09-3.5m18.51 7.34c-.7-.35.7-3.14 1.75-3.49m-5.24 1.75c0-.7 1.05-2.8 2.45-2.8m-41.58 9.43c-1.4 0-1.4 1.75-1.04 3.15m-2.45-3.15c-.7 1.4-.35 2.8 0 3.85m-24.45-23.06c-1.05-.7-3.15 0-3.15 1.75m60.09-37.03-1.75-2.1v3.15m25.5-3.15V604l2.45 4.2m151.96 141.48c-2.8-.35-10.13 2.1-9.78 4.54 0 2.1 5.24.35 7.33-1.05-.34 2.8-1.74 5.94 1.05 5.6 2.45-.36 1.4-9.1 1.4-9.1Zm0 0s18.17-7.69 13.97-24.1m-8.03 3.84c1.75 3.14 6.99 4.89 15.37 1.4M258.5 735c1.4 3.5 8.38 4.19 11.53 2.44m-13.28 2.8c1.05 2.1 5.94 3.14 8.04 3.5m-10.49 1.39c.7 2.44 4.9 3.14 4.9 3.14M67.06 621.47c0 2.09 2.8 3.84 7.34 4.19 4.54 0 6.98-1.75 6.98-3.5-.34-1.74-2.79-3.84-7.33-4.54-4.54-.35-6.64 1.75-6.99 3.84Zm36.33-1.4c0 2.1-2.44 3.84-6.98 4.19-4.55.35-7.34-1.05-7.34-2.8.35-2.1 2.8-4.19 7.34-4.89 4.54-.7 6.63 1.4 6.98 3.5Zm162.8 104.8c.7 1.74 4.18 4.54 6.63 2.1 2.8-2.8-2.8-16.08-5.24-16.77-2.45-.7-8.73 7.68-9.08 11.87-.7 4.54 4.54 7.34 7.68 2.8Zm81.74 41.92c-4.55 0-8.04-4.9 5.24-13.63 4.19-2.8 12.92-.35 14.32 5.94 1.4 5.6-1.05 7.69-4.2 7.69h-15.36Z" />
    <path
      d="M353.88 752.81c4.54-3.14 13.97-9.78 22-6.63 8.04 3.14 7.34 12.22 5.94 15.37-1.4 3.14-8.03 4.89-18.16 5.24m19.2-8.39c1.76 1.75 2.8-.35 7 1.4 4.19 1.75 4.54 6.64 8.03 7.69M152.31 452.74l12.23-3.15 7.33 4.9c1.05 1.04-30.74 9.77-30.74 9.77l-8.73-5.24-5.94 7.34-53.8-2.1 6.99-6.98" />
    <path
      d="M87.33 431.43c-4.89 6.28-5.24 12.22-6.63 13.97-1.05 1.75-7.34 6.64-.35 11.53 9.08.7 51.7 1.4 51.7 1.4l1.74-.35m-18.51-33.2a38.07 38.07 0 0 0-18.51.7m32.83 15.38c-.35-3.5-.7-8.38-5.24-12.23m-33.53 11.53v4.9" />
    <path
      d="M114.23 440.16v4.9M100.96 444l1.05 1.05m0 0 1.04-1.05m-1.05 1.05c-1.04 1.75-1.4 6.64 0 9.43m22.36-25.85s.35-7.68-1.4-8.73c-1.4-1.05-7.68 4.54-7.68 4.54m-18.51 1.05c-1.05-2.8-7-4.9-7.34-4.54-1.4.7-2.45 7.68-2.1 10.13" />
    <path
      d="m118.42 425.84 2.8-1.75.35 2.8m-27.95 0-2.44-1.75-.35 3.5m34.23.7c4.9 0 19.22-1.76 28.65 3.83 8.38 4.9 11.17 12.93 10.83 16.42m-34.59-3.84c-4.54 3.14-4.89 12.57 4.2 11.88 9.43-.35 17.81-2.8 18.16-4.9 0-2.44-3.5-5.58-15.37-3.49m10.48 3.5c1.05.34 3.5-.7 3.84-1.4M78.6 464.26l1.75 8.39 52.4 2.44 31.79-8.73 1.04-9.08m-33.18 1.74v16.07M23.75 748.27c-1.04 4.2.7 9.78 3.5 9.78 4.19 0 5.94-12.22 3.5-17.11-2.45-4.9-10.14.34-12.93 3.14m-5.6 13.97c1.05 1.75 5.6 5.6 11.53-4.19m33.89-5.59c-2.8 3.85-3.5 10.13 0 10.48 3.84.35 9.78-10.13 7.34-15.02-2.45-4.54-10.48-1.4-14.68 5.24m-2.8 9.78c.36 2.45 6.3 4.2 9.44 0m-20.6-30.74c0 1.75 5.58 2.8 6.98 0a3.14 3.14 0 0 0 4.19 3.5" />
    <path
      d="M56.6 743.03c1.04-2.44 0-8.38-3.85-12.23-3.84-3.84-5.59-4.88-10.48-6.63-4.9-1.75-11.18-1.4-15.72 0-4.9 1.05-10.48 8.73-11.18 11.88-4.2 5.24-17.82 29.69 8.38 58.33-1.74 2.8.7 7 10.14 12.23.7 8.38 1.4 16.77 4.54 17.47 3.14.7 4.54-18.17 4.89-20.26 5.94-2.1 22-11.88 24.8-28.3 4.54-1.75 15.02-10.48 13.62-15.37-1.04-4.9-12.57 5.24-14.32 6.29 2.1-6.64.35-14.33-4.89-11.53" />
    <path
      d="M63.93 787.05c2.44 1.4 9.78 4.54 15.02 10.13 4.2 4.54 8.38 17.12 3.14 19.56-5.24 2.45-5.94-9.43-9.08-13.27a39.47 39.47 0 0 0-13.97-10.48m-28.3-69.87a24.84 24.84 0 0 0-4.54-4.9c-.7-.34-1.75 5.25-1.75 6.65m27.6 5.24c3.14-.7 5.59-1.75 6.29-1.4.7.35-1.75 6.99-2.45 6.99M24.8 756.3c1.05 0 1.75-1.74 2.1-3.14m.35 4.9c1.4-.36 1.74-3.15 1.74-3.85m26.55 2.1c.35.35 1.4-.35 2.1-1.75m-.35 3.84 2.45-2.44m22 3.84c-.7-.35-2.44 1.4-2.44 1.4m-40.87 58.68c-.35.36.35 2.8 1.4 3.15m82.09-79.3c8.03 8.03 0 12.23-11.53 16.42-11.53 4.2-20.96 14.32-12.93 23.06 7.69 8.38 16.07 2.44 13.63-2.1-2.8-4.9-20.26-4.9-23.06 13.97-3.14 18.87 14.67 31.44 18.52 43.32 3.49 12.23-5.94 22.7-16.07 15.72m283.66-268.64c1.4 1.4 10.13-2.8 10.48-7.68m-11.88-8.74 3.5 4.9m-3.85-4.9c1.75-1.4 11.18 5.24 15.37 13.28a63.63 63.63 0 0 1 5.59 14.67c4.2 1.4 7.69 5.59 6.64 7.34-.7 1.74-6.3-3.85-6.3-3.85 1.06 2.1 2.45 8.04 1.06 8.39-3.15.35-4.2-7.69-4.55-9.09-16.06-5.58-22-25.15-17.81-30.74Z" />
    <path
      d="M377.98 587.58c1.05.35 2.8-.7 2.8-2.1m2.44-1.4c1.05.7 2.44-.34 2.44-1.74m-3.14 6.29c.7.7 2.44-.35 2.44-1.75m-2.79 6.29c1.05.35 2.8-.7 2.8-2.1m1.4-1.05c1.04.35 2.79-.35 2.44-1.74m-2.1 6.29c1.05.34 2.8-.35 2.45-1.75m-288.2-14.67c.35-3.15 4.19-5.6 6.29-4.2 2.79 2.45 0 12.93-1.75 15.38-1.75 2.79-12.23-5.6-11.88-10.13 0-3.15 5.94-4.2 7.34-1.05Zm206.45-71.27c-2.8-1.4-9.43-.7-10.13 2.8-1.04 3.5 12.93 8.73 15.02 5.94 1.75-1.75-.35-6.64-4.89-8.74Z" />
    <path
      d="M91.18 744.08c5.93 3.14 23.05-.35 32.83-11.53m-31.09 14.67c6.3 3.15 20.96 2.45 31.44-10.83m-24.45 16.07c4.89 1.4 16.77-2.44 23.06-9.43m-17.82.7c3.84-3.14 6.64-22.7 1.4-25.85m3.49 24.45c4.2-5.59 7.34-18.86 2.8-23.4m3.14 20.6c3.14-3.83 4.89-12.57 3.14-16.41m-25.5.7c.35 4.2 9.08 11.18 13.97 12.22m-17.46-7.33c.35 3.14 9.78 11.18 16.77 11.18m-3.15-15.72-2.8-35.63m-1.39 38.77-23.4-25.5m22.7-13.27h4.2m-28.3 13.97 2.44-2.45M227.76 445.4c-5.93 1.05-26.54 13.28-28.3 7.69-1.74-5.6 10.14-11.18 13.63-13.28-12.57-24.1-5.59-30.04-1.74-30.4-1.75-6.63-.35-16.06 3.49-21.65 3.84-5.94 21.66-21.66 30.04-25.85 8.39-4.2 20.96-5.94 22.01-4.9 0 .36-2.8 4.2-4.2 5.25.36 1.05 10.49 12.23 11.89 14.67 0 0 4.89-2.44 5.94-.7 1.04 1.4-8.04 20.96-18.17 27.25 0 0 1.05 9.08.7 12.23 2.1-.35 6.63 0 7.68 3.84 1.05 3.84-2.1 17.47-3.14 21.66 3.14 1.75 12.23 7.68 10.13 10.83-1.75 2.8-12.93 0-23.76-8.04m-10.47-.35-4.9.35m55.2 63.58c-1.05-1.05-4.54-6.98.7-10.48 1.4-1.05 3.84-.35 5.59 1.05 0-4.54 8.03-7.69 10.13.35 4.54-3.5 11.88 1.4 8.03 6.29 6.64-1.4 8.39 9.78-2.44 10.48-.66 3.15-1.71 6.2-3.15 9.08-1.74 3.14-23.05-3.84-22-7.69 1.4-5.93 2.44-8.03 3.14-9.08ZM6.64 258.51c1.4-4.54 7.68-6.3 10.13-3.5 3.14 4.2-4.9 17.82-8.39 20.61-3.49 2.8-14.32-12.57-12.22-18.86 1.4-4.2 9.78-3.14 10.48 1.75Z" />
    <path
      d="M236.85 425.84c.37 6.3.96 12.6 1.75 18.86.34 2.1-3.85 5.6-8.04 4.54-4.2-1.05-1.75-5.24-2.1-7.68l-1.74-14.68m16.07-1.4c.35 2.45 1.05 16.43.7 18.52-.35 2.1 4.54 5.24 8.73 3.85 3.84-1.75.7-5.6.7-8.04l.35-14.67m2.44-47.16-.35 1.75 1.4-.35" />
    <path
      d="M230.56 445.05c-.35.7-1.4 3.14-.7 4.2m3.5-3.5c-.36.7-.7 2.44 0 3.5m15.02-4.55c.7 1.05.34 2.8 0 3.15m3.49-3.5c.35.35.7 1.4.35 3.15m20.96 2.44c.7.35.7 2.45.35 2.8m2.1-3.5c.7 0 1.74 1.05 1.74 1.05m-72.66.35c-1.4.7-.7 3.5-.7 3.5m-2.44-4.2c-.7.7-1.75 2.1-1.75 3.14" />
    <path
      d="M273.53 445.05c6.99 2.8 10.48 4.9 9.43 9.43-1.4 4.54-9.08 6.64-13.97 7.34-4.9.7-3.5 8.03 2.8 7.68 6.28-.35 18.16-6.63 19.2-13.97.7-7.68-9.78-15.02-22-16.77m-10.13-78.6 2.1-.35-1.06 1.4m15.03 18.52 2.1-1.05-1.06 2.1M78.6 212.4a25.14 25.14 0 0 1 8.03 18.16c0 15.72-16.06 28.3-35.98 28.3-19.9 0-36.33-12.58-36.33-28.3 0-6.99 3.15-13.28 8.39-18.16" />
    <path d="M78.6 212.4c-5.24-7-1.05-10.14-2.45-10.49H24.8c-1.4 0 2.45 6.3-2.8 11.18" />
    <path
      d="M71.26 223.57c-2.8-1.74-9.43-12.57-6.28-21.66 2.8-9.43 11.17-16.76 17.11-14.67 5.94 2.45-4.89 7.34-8.03 13.28-3.15 5.94-.35 12.57 1.05 13.97 1.4 2.1 11.18 11.88 6.28 23.75-4.89 11.18-19.56 16.42-31.09 16.42-7.68 0-22.7-3.84-28.64-14.67-5.94-11.18-.35-19.21 1.4-21.66 1.74-2.44 4.89-7.68 4.89-10.48 0-2.8-.7-9.43-.35-10.48 0 0-5.24-5.24-5.6-6.28-.34-1.05 7.34-1.05 7.34-1.05s11.88-6.64 26.55-3.84c4.54-2.1 7.69-2.8 8.39-2.45 0 1.4-2.8 7.34-2.8 7.34 1.05.7 5.24 5.23 4.54 8.38" />
    <path
      d="m27.6 194.23-1.75-1.75h2.45m29.69-4.89 2.44-.7-1.04 2.1m-4.2 5.59.7 2.8M36 195.62l-.7 3.49m9.08-2.8 1.4 1.05.7-1.4m-14.68 20.97c2.44-3.5 8.38-5.94 11.53-3.85 3.14 2.1 8.73 13.98 3.14 17.12-3.5 1.75-6.99-6.99-6.99-9.08m42.27 16.07c.35-4.9-3.49-11.88-15.37-15.02-2.8-1.4-5.59-5.94-8.38-8.04-2.8-1.74-8.38-1.4-6.64 2.45 1.75 3.84 6.99 6.98 6.64 7.68-5.59 2.8-9.78 10.13-2.1 16.77m-11.52-10.83c1.4-1.05.7-2.8.7-2.8m2.09-1.4.7 2.8m5.59-15.72c-1.05 1.4 0 3.15 0 3.15m68.12-51.36c.7.36 3.14-1.04 2.44-3.14.35 2.1 3.15 1.75 3.85.7m-98.17 35.28c-.7 2.8 11.18 2.45 11.18-.35 0-2.8-10.48-3.49-11.18.35Zm20.26-1.04c0 3.14 11.53 1.74 11.18-1.05-.35-3.15-10.83-2.8-11.18 1.05Z" />
    <path
      d="m133.8 149.86 1.74 5.24m-27.6 3.85 1.75 5.24M53.8 369.94c-1.04 12.23-2.79 19.92-3.84 21.66-1.04 2.1 6.64 9.08 6.3 18.52-.36 8.03-4.55 17.81-4.2 20.96.35 2.1 2.8 4.19 1.4 6.63-.7 1.4-5.94 1.4-7.69-1.4-1.05-1.74-.35-10.47-1.4-13.27l-2.44-4.89m-17.82-81.4c.7-4.53 8.39-16.41 10.83-18.86.7-3.49 2.8-9.43 4.2-10.13 1.04-.35 3.14 5.24 3.84 6.99 2.1 0 12.22 3.14 14.67 5.59 3.84-2.45 6.29-3.5 6.99-3.5 1.04 0-1.4 8.74-2.45 10.14-1.05 1.4 1.05 10.48.35 13.27-2.1 8.38-4.89 9.08-6.99 16.42m97.47-204.01c4.19 11.53-5.6 25.5-22.01 31.09-16.07 5.59-32.49 1.05-36.33-10.13a18.51 18.51 0 0 1 2.1-16.07c-1.4-3.84-1.05-11.18 0-12.58 1.04-1.4 4.19 1.05 6.63 4.9a41.92 41.92 0 0 1 27.95-9.79c-1.4-3.5-1.75-7.68.35-6.98 1.05 0 5.24 2.1 9.78 8.73 5.59 2.1 9.78 5.94 11.53 10.83Z" />
    <path
      d="M12.93 362.26c1.74-16.07 5.58-25.15 10.13-25.5 5.59-.35 9.43 5.94 10.48 9.78 1.04 3.84 4.54 8.03 10.83 9.43 6.28 1.4 20.6 0 23.75 1.4 3.14 1.4 5.59 4.54 1.4 6.29-4.2 1.74-26.55 5.94-33.19 4.89-6.64-1.05-14.32-7.69-16.07-9.79m16.42 38.43c3.14 3.15 8.38 14.32 4.54 21.66-3.84 7.34-4.54 8.03-4.54 10.13 0 4.9 3.5 5.94 3.5 9.78 0 2.1-5.25 3.5-8.4.7-4.18-3.5-5.58-21.66-6.98-25.5-1.4-3.84-12.92-12.58-12.57-37.38l.35-8.03" />
    <path
      d="M32.84 367.5c-8.39.35-16.07 1.75-19.91 1.05-4.2-.7-9.79-6.3 9.43-7.69m39.47 4.9c0 1.74-.7 3.14-1.74 3.84-2.8 1.4-8.39 0-14.68-1.4M58 351.43c1.05 1.05 1.75 2.8 2.8 5.24m-41.93 48.2c-5.93 7-9.08 15.38-10.48 22.71-1.4 7.34-6.28 10.48-12.57 11.88-6.29 1.4-8.39-5.94-1.75-7.33 10.48-2.1 4.54-16.42 20.96-35.29m22.7-81.04 1.06-3.15 1.4 2.1m18.86 7.69 2.44-1.4-1.05 3.14m-22 4.2-1.05 2.44" />
    <path
      d="m54.85 333.61-1.05 2.45m-8.39-4.54.35 1.05m0 0 1.05-.35m-1.05.34-2.8 8.04m28.65 19.56c-.7-.7-3.49 0-3.49 0m.7-2.44c-.35-.35-2.1.35-2.1.35m-53.8 7.68c-1.04 0-2.1 1.05-2.44 1.4m1.75-3.14-2.8.7m25.85 73.35c1.05.7.7 2.45.7 2.45m1.75-3.14c.7.34 1.4 2.1 1.05 2.79m10.48-4.9c.35.36.7 2.1 0 2.8m2.8-2.8c.34.36.69 1.76.34 2.8m270.38-337.45c-.7-3.84-4.19-12.23-8.03-15.02-2.1-4.9-3.5-10.13-4.9-10.48-1.39-.35-4.53 6.63-4.88 7.33-2.45-.7-12.58-.35-14.33.35-2.1-2.8-4.54-6.64-5.58-6.98-1.05-.35-4.55 8.73-4.9 11.52-3.49 3.85-6.98 15.03-7.68 17.47-.7 2.45-8.73 16.07-1.05 33.89.7 6.98 4.54 11.17 14.67 10.47 10.13-.7 14.33-2.44 13.98-4.88-.35-4.2-9.08-5.25-17.12-4.55" />
    <path
      d="M314.75 137.99c-8.04.35-14.32 1.4-14.67 6.28-.35 4.9 9.43 4.2 14.67 3.85 5.24-.35 14.67-2.45 15.37-4.9 1.4-.34 11.88 1.06 24.1-4.19 2.45-1.04 29.7 3.85 30.4-1.74.7-5.6-22.36-11.88-24.46-17.82-2.1-5.94-4.54-40.52-45.41-33.88m-45.06 47.85c-4.9.7-15.03 8.04 2.1 7.7" />
    <path
      d="M358.07 111.44c7.33 1.4 28.3-1.05 34.93-2.45 6.64-1.4 11.88-1.4 12.93 2.8 1.04 4.19-12.23 11.87-41.23 11.87M313 93.62v4.54m-23.75-4.19v4.9m18.51-15.73 1.75-2.8 1.05 3.5m-23.4 0-1.4-2.8-1.05 3.85m16.07 57.64h3.84m-3.84 2.8c1.74.7 3.49 0 3.49 0m-8.73-2.45h3.49m-3.14 2.44c.7.35 3.49.7 4.19 0m81.04-9.78 3.15 1.05m-4.2 1.75 3.5.34m-121.22-.7 3.14-.7m-2.1 2.45 3.15-.35m1.4 168.73c-6.99-2.1-11.88-11.53-7.34-24.45-2.44-6.99-3.5-9.43-3.14-10.13.7-1.75 7.34 1.4 9.43 3.14 2.8-.7 17.47-1.75 19.21-1.05l-1.04-6.98c.34-1.75 7.68 1.74 10.82 11.18 1.05 3.14 1.4 12.92 4.9 18.86 3.49 5.94 3.49 10.13 2.8 15.02-.7 4.9-4.55 21.66-9.44 24.45-4.9 2.8-21.31 4.55-26.55 4.2-5.24-.35-6.99-5.24-.7-8.04 6.29-2.8 18.51-4.89 20.26-6.63m16.07-231.26c0 3.84 13.63 2.8 13.63-.35 0-3.5-13.63-3.85-13.63.35Zm-24.1.35c0 3.84 13.62 2.79 13.62-.35 0-3.5-13.62-3.85-13.62.35Z" />
    <path
      d="m288.55 292.04.7 3.15m-19.56-1.05.7 3.14m4.88-2.8 1.05.7m0 0 1.05-1.04m-1.05 1.05 2.1 4.89m-19.56-8.04c-3.15-2.1-6.3-.7-10.14 3.15-3.49 3.84-8.03 12.92-4.88 15.37 4.54 3.5 10.82-6.99 15.72-11.53m20.95-4.9c0 3.15 11.88 1.75 11.53-1.04-.35-2.44-11.53-1.05-11.53 1.05Zm-18.86 2.1c0 3.15 11.88 1.75 11.53-1.04-.35-2.45-11.53-1.05-11.53 1.05Z" />
    <path
      d="M248.03 295.88c-9.78 0-25.16 3.5-35.29 14.68-10.13 11.18-13.27 17.46-16.76 21.66-3.5 4.19-7.69 10.48-6.3 12.57 1.4 2.1 4.55 2.8 8.4-.7 3.83-3.49 9.42-10.83 11.17-11.87 1.75-1.05 20.61-4.9 22.7-10.83m31.45 18.86c-3.84 1.75-18.17 4.9-33.89 3.14-13.62-1.4-23.05-1.4-24.1-1.4" />
    <path
      d="M196.32 345.5V364c0 4.9 8.39 6.64 9.09 0 .7-6.63 1.4-18.86-1.4-26.2m5.94-24.1a18.16 18.16 0 0 0-13.97 18.52m-5.6 8.03c-4.19-.7-6.63-3.14-5.58-5.59 1.04-2.44 5.24-2.8 10.83-2.1m-5.94 11.53c.7.35 1.75-.7 1.75-.7m.7 3.15c1.04-.35 1.74-2.1 1.74-2.1m-9.08-9.08 1.74 1.4m-.34-3.5a3.75 3.75 0 0 0 1.74 1.4m79.65 4.9c-1.05 0-1.75 1.04-1.75 1.74m-.35-4.54c-.7.35-2.44 1.05-2.44 2.44m-15.37-31.44c-.35.35-1.4 2.45-1.05 3.15m-2.1-4.55-1.04 3.85m45.06-37.03s1.4 1.75 1.75 3.14m-28.65 1.05c.35 0 2.1 1.05 2.45 1.75m54.84-110.04c3.5-1.4 11.18-1.75 12.58.7 1.05 2.1-.35 6.63-9.08 7.33-8.74.7-14.68-2.8-13.63-8.73 1.05-5.94 9.78-11.53 22-11.18m.36 42.97c-3.5 2.8-6.64 11.88-3.85 15.72 3.15 4.54 15.73-.35 15.03-4.2-.7-3.84-6.99-3.14-9.79-2.09m4.2-.7c2.8-1.05 4.89-3.84 4.89-4.89" />
    <path
      d="M336.76 195.63c.35 4.54 6.63 10.83 12.92 13.62 0 0-6.98 2.45-6.29 8.38.7 5.94 7 7.34 9.79 7m3.14-4.55c2.44 1.4 13.62 3.84 19.56.35" />
    <path
      d="M368.2 222.53c.35 1.74-3.5 4.19-8.74 6.28-5.24 2.1-11.52 6.64-15.37 6.3-3.84-.36-2.8-5.6 6.99-10.49m-5.59 6.99c-1.4.7-1.4 2.44 0 3.14m-17.81-64.63c.7.35 3.14.35 3.49-.34m-3.85 3.84h3.5m6.64 37.73c.7.35 2.8-.7 3.84-1.4m-2.45 3.84c.7 0 2.45-.35 3.5-1.05m-33.54-45.4c-3.14 1.39-8.03 7.33-8.73 8.72-1.75 1.4-8.74 8.39-7.69 10.48 1.05 2.1 6.99.35 6.99.35.35 2.1 4.2 11.53 7.68 13.98-3.14 1.04-5.24 3.14-4.54 4.19.35.7 5.6 1.75 12.93 0 3.5 0 11.18-1.05 13.62-2.1" />
    <path
      d="M315.1 185.15c.7-1.75 3.14 2.1.7 2.8 2.44-1.06 4.19 2.79 2.1 2.44m-9.09-8.74 1.4-.7M297.98 182l-1.75 2.1 2.45-.35m9.78 18.86-1.75 1.05h3.15m6.64-7.68 1.4-.7m8.38-38.08c16.77-5.94 30.74-7.69 48.2 1.4 17.47 9.08 21.31 29.7 21.66 38.42.35 8.74-.34 22.36-9.43 36.33-9.08 13.98-13.62 23.06-14.32 28.3-.7 6.64-10.48 6.64-10.48-.7 0-7.33 1.75-15.72 13.97-31.44m-64.97-42.97c3.14-.7-1.75-10.82-4.9-9.43-3.14 1.4.7 10.48 4.9 9.43Zm7.68 14.33c3.15-.7-1.74-10.83-4.89-9.44-3.14 1.4.7 10.48 4.9 9.44Z" />
    <path
      d="M384.27 179.56c-6.64-3.5-18.52-1.75-19.57 6.98-1.04 8.74 9.79 19.92 12.23 22.71 0 3.5-3.84 22.7 2.1 23.4 5.94.7 8.38-16.06 7.68-22.7m-8.38 17.47c-1.4.7-1.4 3.49-1.4 3.49m4.54-3.15c.35.36 1.05 2.45.7 3.15M135.9 363.66c-.7 2.44-6.64 6.98-13.97 6.98m-.7-1.04c.7 2.1 6.29 11.87 2.44 13.97-3.84 2.1-13.97-5.24-11.17-18.87 2.79-13.62 30.39-21.65 42.27-20.6 12.22.7 29.34 11.17 30.04 23.4.7 12.57-4.54 18.86-2.1 29.34 2.45 10.13 2.8 18.17.35 24.46-2.45 6.28-11.18 4.54-8.38-3.15 3.14-8.03 1.05-18.51-.7-23.4-1.75-4.9-.7-8.74.35-11.18" />
    <path
      d="M151.96 360.86c-6.29 1.05-17.12 18.17-13.28 30.74-2.44 1.75-17.46 3.84-16.76 9.44.7 3.84 14.32 1.4 21.3 0 7-1.75 9.79-1.75 11.88-4.55m0 0c2.1-3.14 4.2-5.24 7.34-5.59a17.81 17.81 0 0 0 10.83-4.89M155.1 396.5c10.14-.7 11.88-4.19 11.88-6.63m-42.62-6.64a31.43 31.43 0 0 0 13.63 6.64m-3.5-1.05c-5.94.35-16.77 4.54-9.43 8.03m-12.92-23.4c-3.85-.7-10.48 3.5-6.3 8.73 4.2 5.24 18.17 8.03 15.03 1.4m26.55-39.13c0-1.74-2.1-5.94-2.45-6.63-.35-1.05.7-5.25 0-7.69-1.04-2.44-6.63 3.14-7.68 3.84-2.1-.7-16.07 2.1-17.82 2.8-2.1-1.05-6.98-2.1-8.73-2.1s1.75 7.69 2.44 9.43c-1.74 2.8-3.84 10.13-.7 19.92" />
    <path
      d="m115.63 340.95-.7-2.1 2.45.35m11.18 5.6 1.4.7.7-1.06m3.83-1.4 7.34-1.04m-16.07 2.8-8.38 1.74m4.89 33.53c.7.7 1.4 1.4 2.44 1.4m-4.89 0s1.75 2.1 2.8 2.45m-3.85.7c.7 1.04 1.05 1.04 2.1 1.04m5.24 13.98c-.35 0-2.8 1.4-2.45 2.1m-.34-6.64c.34-1.4 2.44-1.75 2.44-1.75m14.32-57.99 1.75-1.75v2.45M97.46 102c1.05-3.49 12.93-10.82 16.42-14.67 3.5-3.84.35-8.38-4.54-5.59-5.24 2.8-10.13 3.15-16.42 6.64-6.63 3.15-8.38 8.73-13.62 16.07-6.64 4.2-10.83 9.78-11.53 13.97-1.4 1.05-6.99 6.3-6.29 7.34 0 1.05 4.9 1.75 9.09 0 1.04 2.45 9.43 11.88 12.92 13.97-1.05 1.4-1.4 7.34 0 7.34s5.59-2.1 9.08-5.94c5.6-1.05 14.33-11.53 17.47-13.62 4.54-3.5 13.27-6.99 17.82-15.37 4.54-8.39 6.28-18.87 2.8-21.31-3.5-2.1-5.25 4.89-7 8.38-1.74 3.5-6.63 9.78-11.17 11.88m-10.83-26.55c-9.44-3.84-23.06-5.24-42.97 0m61.48 19.91c0-2.1-2.1-8.73-9.08-14.67" />
    <path
      d="M75.1 131.7c-8.38.35-24.1.35-51-24.8-2.44 1.4-6.28-.7-11.17-8.39-4.9-7.68-6.64-14.67-3.5-15.72 3.5-.7 11.53 12.93 12.23 13.98.7-6.3 12.23-22.36 29-8.39" />
    <path
      d="M78.6 81.05c-2.1-4.9-5.94-13.63-23.4-4.9-2.45 1.05-1.4-2.1 0-5.24 1.4-3.49 4.19-9.43 1.4-10.82-2.45-1.4-9.79 5.58-14.33 22.7m-4.2 36.33c-6.28 2.8-16.06 11.88-18.5 18.52-3.85 9.43.34 15.37-5.95 16.42-6.28 1.04-11.52-24.1 17.47-39.83m36.68 7.34-1.4 2.1 2.45-.36m16.77 17.47-.35 2.45 2.44-1.75m5.94-10.83 3.15-3.14m-16.07-8.74 3.14-3.14m4.54 6.99h1.05m0 0v1.04m0-1.04 3.84-3.5M7.7 85.94c1.4 0 2.79.7 3.14 1.4m43.32-26.9c1.04.34 1.4 2.79 1.04 3.49m70.57-34.59c1.05-5.59 4.2-16.41 5.94-17.46 1.75-1.05 4.2 4.89 4.2 4.89 1.39-.7 14.31-1.05 18.16-.35 1.4-3.5 2.1-5.6 2.8-5.6.69 0 3.48 3.85 5.23 9.1 1.75 5.23 13.28 23.05 2.45 32.13m-74.06 73.36c-1.75 1.75 6.29 10.13 8.38 7.69 2.45-2.1-5.24-10.13-8.38-7.69Zm-12.93-11.53c-1.74 1.4 6.29 9.78 8.39 7.34 2.44-2.1-5.24-10.13-8.39-7.34Z" />
    <path
      d="M166.28 52.05c-2.44 0-13.27.35-13.62 4.9-.35 4.53 10.13 3.83 13.62 2.44 3.5-1.4 5.94-7.34.7-10.13" />
    <path
      d="M145.32 16.07C127.86 1.05 101.31-2.45 90.48 24.8 79.65 52.05 92.22 66.37 131 60.78c8.03 4.55 22.36.35 21.66-3.84-.7-3.5-9.43-3.5-12.58-3.5m-6.29-24.1s5.25-1.4 8.74 0m9.43-.7s4.2-1.74 7.69-.34" />
    <path
      d="m146.02 28.65 1.4 1.04 1.05-1.4m-.35 9.44s.35-5.94-.7-8.39m1.75 26.9c.34 0 2.44.35 2.79-.7m-2.8 3.15c.7.35 2.1 0 2.8-.35m1.05-2.8s1.4 1.05 3.14.35m-3.14 2.1c.35.35 2.44.7 3.14.35m61.83 33.88s-5.58-.35-8.03 1.75c-5.24-8.03-19.56-27.6-24.8-26.2-5.24 1.05-.7 6.64 2.1 14.32 3.14 7.69 3.84 22.36 5.23 29.35 1.4 6.98 11.53 19.21 25.5 21.3 13.98 2.1 37.38-4.53 40.18-18.16 2.8-13.62-6.64-29.7-11.88-33.53-5.24-3.85-3.5-7.34-5.24-13.28-1.75-5.94-3.84-7.34-3.84-10.13 0-2.8-1.4-6.64-2.8-7.34-1.4-.7-4.89 5.24-4.89 5.24s-19.91.7-24.45 10.48c-4.9 10.13 2.1 18.87 7.68 22.36" />
    <path
      d="M211.35 60.09s-4.2-4.55-5.24-4.2c-1.05.35-.7 6.3-.35 9.09m18.16 19.9c-4.54.36-13.27 2.8-14.32 8.74m-18.16 9.78c-5.6-4.19-11.53-3.5-12.58-.7-1.05 2.45 10.48 6.64 14.67 12.23m5.59 7.69c-15.02-.7-32.14 3.49-38.08 8.73-5.59 5.24-.7 10.13 5.94 6.99 11.88-5.6 25.15-8.74 43.32-7.69m18.51-64.28.35 2.45m-17.46 0 .7 3.14m-29-1.4 2.1 1.4m-.7-3.84c.75.51 1.45 1.1 2.1 1.75m-7.7 33.53c.7-.7 3.15-.7 3.85-.35m34.23 92.93c-6.28 0-14.67-8.74-13.97-16.07.7-6.3 6.99-10.83 10.83-13.98 3.15-2.44 12.23-7.68 21.66-1.74a32.16 32.16 0 0 1 7.34-4.54c1.4 0 .7 8.03 0 10.13 2.1 2.1 5.59 7.33 8.03 12.92 2.1 5.24 8.03 7.69 11.53 15.37 3.14 7.34 10.13 45.77-17.47 49.96m-24.8-178.86c.35 1.74 12.57.35 12.23-1.75-.35-2.1-12.93-1.4-12.23 1.75Zm-5.24.7c.7 1.74-9.08 4.19-9.78 1.4-.7-2.45 9.08-4.2 9.78-1.4Z" />
    <path
      d="M214.84 165.24c-.35-.7-4.54-4.9-5.59-4.9-1.05 0-.7 7.34 0 9.09m6.99 10.48c0 .7 2.8 1.05 2.8-1.4.34 1.4 1.74 2.8 2.79 1.05m10.13-3.15v2.1m-18.87-2.1v1.75m20.26 8.73c-4.54 2.1-14.32 2.1-23.4 22.71-9.43 20.26-10.13 41.92 22 39.82 4.9 1.4 7 4.55 23.06 5.94 16.42 1.4 36.33.7 40.88-2.1 4.54-2.79 2.1-6.28-3.5-6.63-5.59-.35-18.86 2.44-33.88 1.4-4.9-.35-7.34-1.4-7.34-1.4m-28.64-69.52c0 2.1 12.22 2.1 12.22-.35 0-2.44-12.22-3.14-12.22.35Zm-6.3-.35c0 1.4-9.42 2.1-9.77-.35-.35-2.44 9.78-2.44 9.78.35Z" />
    <path
      d="M342 13.97c-13.28 4.9-10.83 21.66-5.6 29.35-18.16-3.15-22 3.5-21.3 6.29 1.05 3.49 11.88 1.04 20.6 3.49 9.8 2.8 13.63 2.44 17.82 3.14 4.2.7 8.74-2.1 8.04-.7-4.2 4.9-12.58 9.44-26.55 7.69-11.18-1.4-17.47-6.64-19.91-2.1-2.8 5.24 5.59 12.58 26.55 10.83 23.4-1.74 31.79-13.27 37.03-23.4 5.24-10.13 13.62-36.33-9.44-51.7-23.05-15.37-54.14-5.6-62.53 1.04-3.84 3.15-10.47 2.45-14.67 7.34-4.89 6.29-7.33 17.82-8.03 19.21-2.1 3.85-3.15 10.48-2.45 11.18.7.7 4.9 0 6.99-1.05.7-.35 8.38 5.6 17.81 7.69 1.75 2.1 5.94 4.89 7 4.54.34 0-.7-4.54 0-5.59l2.09-4.89m-74.76 167.33c1.4-2.44 11.18-5.24 13.97-1.05 4.9 7.34-6.98 23.06-13.62 24.1-8.38 1.05-17.82-14.67-15.72-22 1.05-4.9 11.53-6.99 15.37-1.05Z" />
    <path
      d="M317.2 16.42c-.35 3.14-4.9 10.83-3.85 15.72 1.05 4.89 5.24 6.99 11.88 6.29 6.64-.7 8.03-4.54 5.24-6.64-2.8-2.1-10.13-1.4-10.13-1.4m-5.94 8.74c1.05 2.1 12.23 4.54 19.21 0m-5.59-5.24c.7.34 2.8.34 3.15-.35m-3.5 2.8 2.1.34m-10.83 11.53c-1.05.35-2.1 1.74-1.05 3.14M300.78 31.1l1.04-.35v1.05m2.1 1.4c.35.7 4.9 2.44 6.64 2.44M291 28.3c.34.7 5.24 2.8 7.33 2.44M285.4 29.7l-.7 2.8m25.5 8.73 1.06 2.1m51.7 399.28c1.74 4.2 5.24 10.14 1.05 12.23-3.85 2.1-15.03-10.13-12.58-18.16 2.8-8.39 13.62-7.34 17.47-3.85 2.44 2.45 5.94 10.83 8.38 17.47 4.54 5.24 11.18 11.88 12.93 30.74 1.74 18.87 1.4 33.54 5.24 46.11 2.44 3.85 4.89 7.34 1.04 10.13-3.84 2.8-11.87-3.49-20.6-28.99-1.06 5.24-8.74 24.45-14.33 23.75-5.59-.7-.35-11.52-.35-11.52" />
    <path
      d="M363.3 518.06c-2.09 2.45-8.03 8.74-13.97 4.9-5.94-3.5-3.14-15.38-.35-22.02a73.4 73.4 0 0 1-3.84-18.16m1.05-3.5c-.35 2.8-3.5 5.94-5.59 6.64-4.54 1.05-7.69-4.54-14.32-2.44-2.1.35-12.23 6.63-15.02 3.84-2.8-3.14 5.59-9.08 10.13-11.88 4.54-2.8 10.83-4.54 11.53-5.24.7-.7 0-5.59 2.44-7.33" />
    <path d="M358.76 430.38a24.1 24.1 0 0 0-26.9.7c-12.57 8.03-14.32 35.63 2.1 33.88" />
    <path
      d="M327.32 441.56c.36 1.74 4.2-1.05 2.8-4.2 2.44 1.75 7.34-3.14 4.2-3.14m7.33-7.34c1.05-3.49 3.5-5.24 3.84-5.24.35 0 2.8 2.1 4.2 4.55m-27.25 20.6c0 .7-4.9 4.55-5.6 5.95-.7 1.4 5.6 2.8 5.6 2.8m39.82-5.95c0 1.75 2.8 3.5 3.5 3.15m-5.95-1.75 1.75 3.84m-47.16 29c-1.05.35-2.1 3.14-1.05 4.19M364 526.79c-1.04 1.4-1.04 4.2-.7 4.9m-2.44-5.25a5.6 5.6 0 0 0-1.75 3.15m33.54 2.8c1.05 1.04 1.05 3.84 0 5.23m3.15-6.28c.7.34 2.1 2.8 2.1 4.89m-45.07-11.88c-6.64 6.29-18.17 15.72-31.44 18.86-6.99 1.4-8.39-4.89-1.4-8.03 6.64-3.14 19.91-9.43 25.85-18.17m16.07-215.53c14.32 7.68 20.26 16.41 22 23.4 2.1 8.38.36 30.04-8.03 40.87 0 2.45.7 7.69-1.05 12.23-1.74 4.54-3.84 9.43-1.04 10.83 2.8 1.4 12.22 2.8 11.87 6.63-.35 3.85-20.26 0-21.66-2.44-1.4-2.44-2.79-17.47-3.84-18.17-1.05-.7-13.27-2.79-15.72-9.43-6.29 5.24-20.6 7.69-27.25 8.04-6.63.35-17.46-.7-25.15-6.3-7.33-5.23 0-9.42 4.2-6.63 9.43 6.64 29.69 7.69 44.01 1.75m-17.12-48.56c0-4.54 1.05-8.38 1.4-10.13.7-3.5 5.59-14.32 25.5-7.33" />
    <path
      d="M334.66 330.47a17.8 17.8 0 0 1-6.99-4.54 15.7 15.7 0 0 1-2.79-4.2m27.25 8.39a22.36 22.36 0 0 1-9.43 1.75m-17.47 40.87c-5.59 5.24-12.93 10.13-11.53 11.88 2.1 3.14 10.83-1.05 14.67-2.8 4.9-2.1 9.09-5.94 12.23-6.99 3.14-1.04 9.43-2.1 10.83-3.14" />
    <path
      d="M345.84 331.52c3.14 2.44 4.54 10.83 1.75 15.72-2.45 4.19-10.83 11.18-16.07 17.81m20.6-49.6c-1.74-1.4-1.39-9.78-1.39-14.32 0-4.55-3.5-14.33-2.8-17.82.7-4.2 7-8.38 10.83-7.34 3.85 1.05-.7 5.94-1.74 7.34-2.1 3.14 5.94 17.47 5.94 23.06m-25.15-12.58c-2.8-.7-11.18-4.54-13.98-7.34-2.8-2.8-5.94-4.89-8.38-3.14-2.45 1.75 1.4 11.18 11.18 15.72m8.03 31.44c-.35 2.1.35 8.38 1.4 8.73 1.05.35 6.64-6.98 6.99-7.33m-19.92-18.17c-3.49 1.4-6.28 6.99-6.63 7.69-.35.7 7.33.7 8.38.35m11.88-3.85c.7 2.1 3.84 3.85 7.33 4.55m-18.86-12.93c0 1.05 3.14 3.84 5.24 4.2m2.1-1.06c.35-1.74 2.79 0 2.1 2.1 1.39-1.4 2.79-1.4 3.48 0m-1.04 19.91 2.44-3.14m-19.21-11.88 3.84-.35m35.98-42.27c-1.05-.35-2.8 1.4-2.8 1.75m0-2.8c-1.04.35-2.09 1.4-2.09 1.75m-38.42 5.24c0 .7 1.04 1.75 1.04 1.75m-3.14-.35c0 1.04 1.75 2.44 1.75 2.44m65.32 107.6c.35.35 1.4 1.05 1.05 2.44M129.95 222.18c-3.5 2.8-13.27 1.04-17.11-7.34-2.8-6.64-5.6-8.03-8.04-7.69-2.44.35-8.03-1.04-3.84-5.59 4.54-4.88 10.48-2.79 13.62 0 3.14 2.45 4.2 8.74 9.43 9.44 5.24.7 10.83-5.94 12.58-6.99 2.1-1.05 6.29-15.37 18.86-18.51 9.09-6.64 10.48-7 11.18-6.3.7.7-.35 5.95-1.4 7 1.4 0 9.09 3.49 10.83 5.24 1.75-2.45 4.2-5.94 5.24-5.6 1.05.35 1.4 9.09 0 11.53.7 3.15 2.45 9.09-6.98 23.4m143.92 160.35c-.7.7-1.05 1.75-.7 2.1.35.35 2.45.35 3.15-.35.7-.7-.7-1.4-1.05-1.4a.8.8 0 0 0-1.4-.35Z" />
    <path
      d="M167.33 233.35c-2.1 4.9-5.94 8.39-10.48 6.3-4.54-2.1 6.29-22.37 14.67-19.57 8.04 2.8 6.64 18.16-4.54 25.15-1.74 6.99-3.14 12.93-8.73 21.31 2.1 5.24 3.14 10.13 2.44 15.37-.7 5.6-.7 11.53 1.05 12.58 1.75 1.4 13.97 2.44 13.97 6.29 0 2.44-18.16 1.4-21.3 0-3.15-1.4-11.18-21.31-15.72-23.06-8.04 1.4-17.12-1.75-19.57-.35-1.4.7-4.19 2.1-7.68 9.43-2.1 4.2-4.54 5.94-6.99 6.99-2.45 1.05-21.66 3.5-22.7-.35-1.05-4.9 14.32-5.94 15.02-9.43.34-2.1 1.04-15.72 6.28-24.1 5.6-8.04 16.77-12.93 19.92-18.52a56.25 56.25 0 0 0 4.54-17.82" />
    <path
      d="M89.08 287.85c-6.99.7-12.58.7-16.07.7-11.88.35-10.48-7.34-3.14-8.38 9.08-1.4 27.24-2.1 27.24-2.1m33.2-.35c-3.15 2.8-9.79 4.9-17.48 6.64m49.26-88.04c-.35 1.75 2.8 2.45 3.84.7-.35 1.75.7 3.5 2.45 3.15m6.29 0 1.05-1.75m-17.47-6.29 1.05-2.1m-56.25 14.33c-.7 0-1.05 2.1-.35 2.44m58.7 29.7c-.36.35-1.06 2.8-.7 3.5m-2.45-4.2c-.35.35-1.4 2.44-1.05 3.84m15.02 60.09c.7 0 1.4.7 1.4 1.75m-86.29-10.14c-.7 0-2.44 1.4-2.1 3.5m140.44 497.45c0 1.4 5.59 2.44 12.23 2.44 6.63 0 11.87-1.05 12.22-2.44l9.08-19.21m-42.26 0 8.73 19.56m22.36-2.8c0 1.05-4.54 2.1-10.13 2.1-5.6 0-10.14-1.05-10.14-2.1l-3.84-8.38m27.6 0-3.84 8.73m-77.56-593.87c-.7 2.45 7.7 7 9.44 4.2 1.74-2.8-8.04-8.39-9.44-4.2Zm-4.19-3.14c-1.05 2.45-12.92-1.4-11.18-4.54 1.75-3.14 12.58 1.4 11.18 4.54Zm123.67 443.3c0 5.6 2.8 21.31 3.14 23.06.35 1.75 20.26.7 22 .7 1.76 0 16.43-8.73 17.13-9.43.7-.7-1.75-23.06-2.1-23.76-.35-.7-11.53-8.38-12.92-9.43l-.7-4.89-20.26 4.9.7 4.88s-7 12.58-7 13.98Z" />
    <path
      d="m314.75 659.2-2.8-25.5m0 0c-.34-.7-15.37-11.19-15.37-11.19l20.27-4.89m-4.9 16.07 17.82-5.94m-36.33 22.01-.7-6.29 3.14 2.8 1.75-3.5 1.4 6.3m1.75-5.95 1.04 5.6m1.75-6.64 1.05 6.63 2.8-.35m.34-6.63 1.4 6.63M310.9 642.77l-2.09 2.8 3.14 2.44m-30.39-418.5c0 1.75 8.04 3.84 18.17 3.84 10.13 0 18.16-2.1 18.16-3.84l-3.14-9.08m-30.04 0-3.15 8.73m-80.7 32.5c.7 1.39 9.09 2.44 9.79 1.04 1.05-1.75 3.84-7.34 3.5-8.04 0-.7-4.9 1.05-4.9 1.05-.35-1.4-1.4-6.29-2.1-6.29-.7 0-3.49 5.94-3.49 5.94l-4.2-2.8c-.34 0 .36 7 1.4 9.1Z" />
    <path
      d="M281.91 228.46c-2.44 1.05-3.14 2.45-2.8 3.85.7 1.74 9.09 3.84 20.62 3.84 11.53 0 19.91-2.45 20.26-4.2.35-1.39 0-2.79-2.1-3.49M45.41 454.13l.7 5.6c.35 2.44-10.13 5.58-23.4 7.33m0 0C9.43 468.8-1.75 468.46-1.75 466l-1.04-5.94m25.5 6.99.35 3.5m-16.42-9.1a129.26 129.26 0 0 1 31.09-3.83m148.46-166.29c0-5.24 1.75-16.41 3.15-18.86 0-6.99 0-8.38 1.05-9.08 1.05-.7 6.29 4.54 6.98 5.59 1.4-.35 13.98-1.05 18.52 0 2.1-2.45 4.89-5.24 6.29-4.9 1.4.36.34 8.74.34 9.44 0 .7 2.45 11.53 2.1 17.81M23.06 470.9c2.1-1.75 5.24-1.4 5.59 1.4.34 2.8-3.15 5.94-4.55 6.29-1.4.35-5.59-2.45-5.93-4.9-.35-2.44 2.44-4.19 4.89-2.79Z" />
    <path
      d="M224.27 283.3c5.24 1.06 8.39 2.8 8.39 4.55 0 3.14-12.58 5.94-27.6 5.94-15.02 0-27.95-2.8-27.95-5.94 0-1.75 3.5-3.5 9.43-4.54m31.8-1.75v3.84" />
    <path
      d="m199.12 281.56-.35 3.84m6.29-2.79.7.7 1.05-.7m-1.05 1.05v5.94m63.58 188.29-61.49-12.58c1.75 1.4.7 9.78-.35 18.87-1.4 9.08-2.8 12.57 9.44 20.26 12.22 7.68-3.15 19.56-.35 34.23" />
    <path
      d="M222.88 549.85c0 3.5 2.1 6.99 6.98 11.88 4.54 4.54 4.9 6.99 5.24 9.08 0 1.75 2.8-2.1.7-6.64-3.5-8.38-1.05-12.57-10.83-15.37M39.82 31.44 6.64 28.3 8.04 51c.34 1.05 28.64 5.6 32.13 4.9 3.5-.7 29.7-14.33 30.4-15.03.7-.7-.7-20.96-.7-21.66 0-.7-14.33-3.49-16.07-3.84-1.75-.35-26.55 10.48-28.3 11.53-1.75 1.05 13.28 3.84 14.32 4.54Zm0 0 29.35-11.88M40.52 54.85l-.7-22.71m257.46 452.04c0-.7-.35-1.75-1.4-1.75l-25.5-5.59c-.7-.35-1.74.35-1.74 1.05-.35 1.05.35 1.75 1.05 2.1l25.5 5.58c1.05 0 1.74-.35 2.1-1.4Z" />
    <path
      d="m6.64 28.3 27.6-10.83c1.74-.7 14.32-.35 14.32-.35M27.6 28.65l-3.15 1.04m4.2 11.53v1.75m-11.53-2.45v1.75m108.3 587.93a15.72 15.72 0 0 0-5.6 11.88c0 10.13 11.88 18.5 26.2 18.5 14.32 0 25.85-8.38 25.85-18.5 0-4.55-2.1-8.39-5.24-11.53-2.1-2.45-.7-4.54-.35-6.3m-40.87 0c.35 1.75 1.75 3.85-.35 6.3M13.62 35.63l18.17 1.4c5.24.35 5.24 9.08-.35 8.73l-18.51-1.74c-3.15-.7-4.55-8.39.7-8.39Z" />
    <path
      d="M163.84 633a11.88 11.88 0 0 1 4.54 9.08c0 8.38-9.78 15.02-22.36 15.02s-22.36-6.64-22.36-15.02c0-3.5 1.75-6.64 4.9-9.09" />
    <path
      d="M150.56 638.93c-2.1 1.05-1.4 5.94.7 6.64m1.4-4.2v1.05m3.5-.34c0-.7-4.55-3.85-9.79-3.85-4.89 0-6.29 3.5-6.29 3.5-1.4-2.45-8.03-5.6-1.4.7-2.1 2.44-3.14 6.98 1.75 2.09 1.05 2.1 4.2 2.1 5.24 2.1 4.54 0 10.48-3.15 10.48-4.9v.36ZM114.57 308.8c1.05-1.75 6.29-5.94 9.78-1.05 2.8 3.85-6.64 15.37-7.68 15.37-1.05 0-10.13-6.63-10.83-11.18-.7-4.54 5.24-7.33 8.73-3.14Z" />
    <path
      d="m119.12 305.67 8.39-1.4c1.4 0 2.8.7 3.84 2.44 2.8 3.85-6.64 15.03-7.69 15.38a25.13 25.13 0 0 1-6.98 1.04m-6.99-16.42c1.75-.7 6.29-1.04 8.03-.7M48.91 161.05c-.7-3.84.7-6.28 2.1-6.63 1.39-.35 3.84-.35 5.58 3.14 1.75 1.05 7.69 1.05 8.04 4.54.7 3.84-3.15 6.99-8.39 6.29-2.44 2.8-5.94 4.54-9.08 2.8-3.5-2.1-1.05-8.04 1.4-10.14h.35Zm-8.04-13.27c-2.44 2.1 2.1 8.38 5.24 7.33 3.15-1.04-1.4-10.82-5.24-7.33Zm12.93 3.5c2.44 0 3.84-8.74-.35-8.74-3.84 0-3.5 8.73.35 8.73Zm-10.83 10.12c0 2.1-7.69 1.4-7.69-2.1 0-3.49 8.39-1.04 8.04 2.1h-.35Zm16.77-5.94c1.4.7 6.63-4.54 3.14-6.28-2.8-1.4-6.64 4.19-3.14 6.28Zm319.99 136.6c1.4-3.15 4.19-3.85 5.23-3.5 1.4.35 3.5 2.1 2.45 5.59.7 1.75 5.24 5.24 3.5 8.03-1.75 2.8-6.3 3.5-9.79 0-3.5.7-7.33 0-8.38-3.49-1.4-3.14 3.5-6.29 6.99-6.64Zm1.4-14.33c-2.8.35-3.15 7.68 0 8.38 3.14 1.05 4.88-8.38.34-8.38h-.35Zm7.68 10.13c2.1 1.4 8.03-4.2 4.89-6.64-2.8-2.1-7.69 4.55-4.9 6.64Zm-13.63 1.75c-1.4 1.04-6.63-3.85-4.54-6.3 2.1-2.79 6.99 4.2 4.54 6.3Zm15.72 4.54c.7 1.75 7.69.7 5.94-2.8-1.04-2.8-7.33-.34-5.94 2.8ZM222.18 153.7c1.04 2.1 11.52 3.49 12.57 1.4 1.05-2.1 4.9-9.44 4.54-10.14-.35-.7-6.28 1.4-6.28 1.4-.35-1.75-2.1-8.03-2.8-8.03-.7 0-4.54 7.68-4.54 7.68l-5.24-3.5c-.35 0 .7 8.74 1.75 11.19Zm-63.23 337.45c1.05 2.1 11.53 3.5 12.57 1.4 1.05-2.1 4.9-9.43 4.54-10.13-.34-.7-6.28 1.4-6.28 1.4-.35-1.75-2.1-8.04-2.8-8.04-.7 0-4.54 7.69-4.54 7.69l-5.24-3.5c-.35 0 .7 8.74 1.75 11.18Zm-10.48-167.33c0 .7.7 1.05 1.74 1.05 1.4 0 3.5-.7 3.5.35l-1.05 1.4-1.75 1.4c-.7.7-1.4 1.4-1.4 2.09 0 1.4.35 2.1 1.75 2.1h5.24c1.05 0 1.4-.7 1.4-1.4s-.7-1.05-1.75-1.05c-1.4 0-2.44.35-2.44-.35s1.4-1.75 2.8-3.14l.69-2.45a2.1 2.1 0 0 0-2.1-1.75l-4.54.36c-1.4 0-2.1.7-2.1 1.4Zm12.22-4.54c0 .7.7 1.05 1.75 1.05 1.75 0 3.84-.7 3.84.35-.4.53-.87 1-1.4 1.4l-1.74 1.74c-.7.7-1.4 1.4-1.4 2.45 0 1.05.7 2.1 2.1 2.1 1.73.27 3.48.39 5.24.34 1.4-.35 1.74-1.05 1.74-1.74 0-1.05-.7-1.05-1.74-1.05-1.75-.35-2.8 0-2.8-.7s1.75-2.1 2.8-3.5a3.13 3.13 0 0 0 .7-2.44 2.09 2.09 0 0 0-2.1-1.75h-4.9c-1.39 0-2.09.7-2.09 1.75Zm11.88-3.84c0 1.05.7 1.4 1.75 1.4 1.74 0 4.19-.7 4.19.34-.4.53-.87 1-1.4 1.4l-1.75 2.1c-.7.7-1.74 1.75-1.74 2.44 0 1.4.7 2.45 2.44 2.45l5.94.35c1.05-.35 1.75-1.05 1.75-2.1 0-.7-.7-1.05-2.1-1.05-1.74 0-3.14.35-3.14-.7 0-.7 2.1-2.1 3.5-3.84.7-.7.7-1.74.7-2.44a2.44 2.44 0 0 0-2.45-2.1h-5.6c-1.4 0-2.09 1.05-2.09 1.75ZM35.98 707.4c0 .7.7 1.05 1.4 1.05 1.4-.35 3.14-.7 3.14 0l-1.05 1.4-1.4 1.4c-.7.7-1.04 1.04-1.04 1.74-.35 1.05.35 1.75 1.4 1.75l4.54.35c1.05-.35 1.4-.7 1.4-1.4s-.7-1.05-1.4-1.05c-1.4 0-2.45.35-2.45-.35s1.4-1.75 2.45-2.8a2.44 2.44 0 0 0 .7-2.09 1.75 1.75 0 0 0-2.1-1.4h-3.84c-1.05 0-1.75.7-1.75 1.4Zm10.83-4.2c0 .7.7 1.06 1.4 1.06 1.74 0 3.5-.7 3.5.35l-1.06 1.4-1.4 1.39c-.7.7-1.4 1.4-1.4 2.1-.34 1.04.36 1.74 1.76 2.1h4.89c1.04-.36 1.4-.7 1.4-1.4s-.7-1.05-1.75-1.05c-1.4 0-2.45 0-2.45-.7s1.4-1.75 2.8-2.8a2.8 2.8 0 0 0 .35-2.1c0-1.04-.7-1.74-1.75-1.74h-4.54c-1.05 0-1.75.7-1.75 1.4Zm10.48-3.14c0 .7.7 1.05 1.75 1.05 1.74 0 3.84-.7 3.84.35l-1.4 1.4-1.74 1.75c-.7.7-1.4 1.4-1.4 2.1 0 1.39.7 2.09 2.1 2.09l5.23.35c1.05-.35 1.75-.7 1.75-1.75 0-.7-.7-1.05-1.75-1.05-1.74 0-2.79.35-2.79-.7 0-.7 1.4-1.74 2.8-3.14.7-.7.7-1.75.7-2.45a2.1 2.1 0 0 0-2.1-1.74h-4.9c-1.4 0-2.09.7-2.09 1.74Zm238.6-350.38c.7.35 23.75 0 25.15-.7 1.4-.7 0-8.73-5.94-9.43-5.94-.7-6.99 3.15-6.99 3.15s.7-5.24-3.84-4.9c-4.54.35-2.45 5.6-1.75 6.3-1.4.34-8.03 5.23-6.63 5.58ZM321.04 348.98c3.14 0 4.89 2.1 3.14 4.9-1.75 2.79 0 5.58 2.45 6.63M189.69 164.2c-1.75 0-21.66-11.88-22.01-12.23-1.05-1.05 6.99-1.75 8.38-1.4 0-1.05.7-6.63 4.9-4.54 3.84 2.1.7 6.29.7 6.29s2.79-2.8 7.68.7 1.75 11.18.35 11.18Zm0 0c2.44 1.74 3.14 4.19 0 5.94-3.15 1.74-2.8 4.54-1.05 6.98m69.17 3.15c4.54 2.44 18.16 0 26.2-9.09m-25.15 11.53c5.24 2.8 16.76 2.1 25.15-8.73m-19.21 12.92c3.84 1.05 13.27-2.1 18.16-7.68m-13.97.7c2.8-2.45 4.89-18.17 1.05-20.61m2.79 19.56c3.14-4.54 5.59-15.02 2.1-18.52m2.44 16.07c2.45-2.8 3.84-10.13 2.45-12.92m-20.26.35c.34 3.5 6.98 9.08 11.17 10.13m-13.97-5.94c.35 2.44 7.69 9.08 13.62 8.73m8.74 7.69c-9.08 6.29-11.18 30.74 7.68 29 9.78-1.05 22.01-3.85 32.14 1.74 7.34 4.2 19.91 18.16 8.74 29-10.49 10.13-8.74-16.07 9.78-4.9 18.51 11.18 4.19 27.95-11.18 29m-84.9 585.13c-1.39 0-22.35-10.48-22.7-10.83-1.05-1.05 6.99-2.1 8.39-1.75 0-1.04.35-6.63 4.54-4.88 4.19 1.74 1.05 5.93 1.05 5.93s2.8-2.8 7.68.7c5.24 3.15 2.45 10.83 1.05 10.83Zm0 0c2.8 1.4 3.5 4.2.7 5.94-2.79 1.75-2.79 4.9-1.04 6.99m-5.59-849.93c6.99 4.2 29.35 22 28.3 24.8-1.4 3.84-35.63 1.75-39.48 1.4m75.46 374.13c1.75-5.58 9.43-8.03 12.22-4.19 3.85 5.24-5.93 21.31-10.13 24.8-4.19 3.5-17.46-15.02-15.02-22.7 1.75-5.24 11.88-3.84 12.93 2.1Zm28.3-12.92c1.4-3.84 6.63-5.24 8.38-2.8 2.8 3.5-3.85 15.03-6.99 17.12-2.8 2.8-12.23-10.13-10.13-15.72 1.05-3.5 8.03-2.8 8.73 1.4Zm19.56-10.13c.7-2.45 4.19-3.5 5.59-1.75 1.74 2.1-2.8 9.78-4.55 11.18-2.1 1.75-8.03-6.64-6.98-10.48.7-2.44 5.24-1.75 5.94 1.05ZM0 630.55c1.4-2.1 3.5-2.45 4.54-2.1.7.7 1.75 1.75.7 4.54.35 1.05 3.14 4.2 1.75 6.29-1.4 2.1-5.24 1.4-7.34-1.4-2.44 0-4.89-1.04-5.59-3.5-.35-2.78 3.5-4.18 5.94-3.83Zm3.14-10.13c-2.1-.35-3.49 4.89-1.4 5.94 2.1 1.04 4.9-5.6 1.05-5.94h.35ZM7 628.45c1.4 1.4 6.63-2.1 4.54-4.2-1.75-2.09-6.29 2.45-4.54 4.2Zm-9.78-.7c-1.05.7-4.55-3.14-2.8-4.89 2.1-1.75 4.54 3.84 2.8 4.9Zm10.82 5.6c0 1.04 5.24 1.39 4.55-1.4-.35-2.1-5.24-1.05-4.55 1.4ZM159.65 85.93c0-2.45 1.4-4.2 2.44-4.2 1.05 0 2.45.35 2.8 3.15 1.04.7 4.89 1.74 4.89 4.19s-3.15 3.84-6.64 2.8c-1.75 1.04-4.54 2.1-6.29.34-1.75-1.74.7-5.24 2.45-6.28h.34Zm-3.5-9.79c-1.75 1.05 0 5.94 2.45 5.6 2.44-.36.7-7-2.45-5.6Zm7.69 4.2c1.74.35 4.19-5.24 1.4-5.6-2.45-.7-3.5 5.25-1.05 5.6h-.35Zm-8.04 5.24c-.35 1.04-5.24-.35-4.89-2.8.7-2.44 5.6.7 4.9 2.8Zm11.53-1.75c.7.7 4.9-1.75 2.8-3.5-1.4-1.4-4.55 1.75-2.8 3.5Zm139.03 184.8-2.1-1.75-2.09 2.1c-.7.35-1.4-.35-1.4-1.05l.7-2.8-2.44-1.4a1.04 1.04 0 0 1 .3-1.19c.12-.1.26-.16.4-.2h2.44l.7-2.8c.7-.7 1.4-.7 1.75 0l1.4 2.45h2.44c.7 0 1.05 1.05.35 1.4l-2.1 1.74 1.05 2.45a1.05 1.05 0 0 1-1.4 1.05Zm58.7 521.55-3.15-2.44-3.15 2.8a1.4 1.4 0 0 1-1.74-1.4l1.05-4.2-3.15-1.4a1.4 1.4 0 0 1-.01-2.1c.2-.19.45-.3.71-.34h3.5l1.04-3.84c.7-.7 1.75-.7 2.45 0l1.4 3.49h3.49c1.05 0 1.75 1.4 1.05 2.1l-3.15 2.1 1.4 3.83c0 1.05-1.05 1.75-1.75 1.4Zm-118.43-98.86c-.35-3.84 4.2-6.99 6.64-5.24 3.49 2.1 1.4 14.67-.35 17.82-1.75 3.14-14.67-5.24-14.67-10.83-.35-3.5 6.28-5.24 8.38-1.75Zm-23.4-327.67s1.74 4.54 3.49 4.19c1.74-.35 1.74-5.24 1.74-5.24s4.54-.7 4.54-1.75c0-1.4-2.79-3.14-3.84-3.5 0 0 1.05-4.53 0-5.58-1.04-1.05-4.54 3.14-4.54 3.14s-4.54-2.1-5.59-1.05c-.7 1.05 1.75 4.9 1.75 4.9s-3.84 3.49-3.15 4.89c.7 1.4 3.85.34 5.6-.35v.35ZM40.16 292.04s4.2 2.45 5.24 1.4c1.4-1.4-1.74-5.24-1.74-5.24s3.14-3.14 2.44-4.2c-.7-1.04-4.19-.7-5.24-.34 0 0-1.74-4.54-3.14-4.2-1.75 0-1.75 4.9-1.75 4.9s-4.89 1.4-4.89 2.44c-.35 1.4 4.2 3.15 4.2 3.15s-.7 4.89.7 5.59c1.04.7 3.14-2.1 4.18-3.5Zm345.5-206.8s2.09 4.54 3.84 4.19c1.74-.35 1.4-5.24 1.4-5.24s4.53-.7 4.53-1.75c0-1.4-2.79-3.14-3.84-3.5 0 0 1.05-4.53 0-5.23-1.4-1.05-4.54 2.8-4.54 2.8s-4.54-2.1-5.59-1.05c-.7 1.04 1.75 4.89 1.75 4.89s-3.5 3.49-2.8 4.89c.7 1.4 3.5.35 5.24 0Z" />
    <path
      d="M262.35 38.43c6.29-1.4 16.07-.35 16.77 1.74.7 2.1-4.9 4.2-8.39 3.5 5.24 2.1 6.99 5.24 6.3 6.28-1.75 1.75-10.84-2.44-15.73-7.33m-41.57-31.8c3.5 1.4 3.5 8.4.7 15.73-2.8 7.34-8.03 12.23-11.53 10.83" />
    <path
      d="M219.73 10.83c-9.43-2.1-28.64 2.44-31.09 4.89-2.44 2.45 11.53 19.21 20.26 21.66M189 18.17c1.4 2.1 9.43 4.89 9.43 4.89m149.52 532.73c-2.1 1.05-1.4 5.94.7 6.99m1.4-4.54v1.04M66.01 831.06c-2.1 1.05-1.4 5.94.7 7m1.4-4.55v1.05M342 864.95c-13.28 4.89-10.83 21.66-5.6 29.34-18.16-3.14-22 3.5-21.3 6.3 1.05 3.49 11.88 1.04 20.6 3.49 9.8 2.79 13.63 2.44 17.82 3.14 4.2.7 8.74-2.1 8.04-.7-4.2 4.9-12.58 9.43-26.55 7.69-11.18-1.4-17.47-6.64-19.91-2.1-2.8 5.24 5.94 12.57 26.55 10.83 23.4-1.75 31.79-13.28 37.03-23.4 5.24-10.14 13.62-36.34-9.44-51.7-23.05-15.38-54.14-5.6-62.53 1.04-3.49 3.14-10.47 2.45-14.67 7.34-4.89 6.28-6.98 17.81-8.03 19.2-2.1 3.85-3.15 10.49-2.45 11.19.7.7 4.9 0 6.99-1.05.7-.35 8.38 5.59 17.81 7.69 1.75 2.1 5.94 4.89 7 4.54.34 0-.7-4.54 0-5.6l2.09-4.88m38.43-328.38c0-.7-4.9-3.84-10.14-3.84s-6.63 3.5-6.63 3.5c-1.4-2.45-8.39-5.6-1.75 1.04-2.1 2.45-3.14 7.34 2.1 2.1 1.04 2.1 4.19 2.1 5.59 2.1 4.54 0 10.82-3.15 10.82-4.9ZM71.95 834.21c0-.7-4.89-3.85-10.13-3.85-5.24 0-6.64 3.5-6.64 3.5-1.4-2.45-8.38-5.6-1.74 1.05-2.1 2.44-3.15 7.33 2.1 2.1 1.04 2.09 4.19 2.09 5.58 2.09 4.54 0 10.83-3.14 10.83-4.9Z" />
    <path
      d="M317.2 867.4c-.35 3.14-4.9 10.82-3.85 15.72 1.05 4.88 5.24 6.98 11.88 6.28 6.64-.7 8.03-4.54 5.24-6.63-2.8-2.1-10.13-1.4-10.13-1.4m-5.94 8.73c1.05 2.1 12.23 4.54 19.21 0m-5.59-5.24c.7.35 2.8.35 3.15-.35m-3.5 2.8 2.1.35m-10.83 11.52c-1.05.35-2.1 1.75-1.05 3.15m-17.11-20.26 1.04-.35v1.04m2.1 1.4c.35.7 4.9 2.45 6.64 2.45M291 879.27c.34.7 5.24 2.8 7.33 2.45m-12.93-1.05-.7 2.8m25.5 8.73 1.06 2.1M121.92-107.25c8.03 8.03 0 12.22-11.53 16.41-11.53 4.2-20.61 14.33-12.93 22.71 8.04 8.38 16.07 2.45 13.63-2.1-2.8-4.54-20.26-4.54-23.06 14.33-2.8 18.86 15.02 31.44 18.52 43.31C110.04-.7 100.6 9.78 90.48 3.14m150.9-.7c-1.39 0-22.35-10.82-22.7-11.17-1.05-.7 6.99-2.1 8.39-1.75 0-1.05.35-6.64 4.54-4.9 4.19 1.76 1.05 6.3 1.05 6.3s2.44-2.8 7.68.35c5.24 3.14 2.8 11.18 1.05 11.18Zm0 0c2.8 1.4 3.5 3.85.7 5.6-2.79 1.74-2.79 4.89-1.04 6.98M63.93 400c5.94 3.14 23.05-.35 32.84-11.53m-31.1 14.67c6.3 3.14 20.96 2.45 31.44-10.83m-24.45 15.72c4.9 1.4 16.77-2.1 23.06-9.43m-17.82 1.05c3.84-3.15 6.64-22.7 1.4-25.85m3.5 24.45c4.18-5.59 7.33-18.86 2.79-23.4m3.14 20.6c2.8-3.84 4.9-12.57 3.14-16.41m-25.5.7c.35 4.19 9.09 11.17 13.98 12.22m-17.47-7.33c.7 2.8 9.78 11.18 16.77 10.82m-9.78 11.53c8.03 4.54-3.15 17.82-8.04 35.63-4.89 17.82-2.1 35.29 25.5 53.45 27.6 18.17 37.73-5.94 26.55-8.03-11.18-2.1-26.9 15.37-21.66 30.4 5.24 15.01 22.36 26.2 7.34 41.21m84.19-108.3c1.4 1.75 6.29 0 6.64-2.09m-4.54-.35 1.04-.35m-1.4-3.84c-.7.35-2.44 5.6-1.4 10.83 1.06 5.24 4.9 5.59 4.9 5.59-2.1 2.1-3.5 9.43 1.4 1.75 2.8 1.4 7.68 1.4 1.4-2.8 2.09-1.4 1.4-4.54 1.04-5.94-1.05-4.19-5.59-9.78-7.33-9.43ZM75.12 62.18l-2.8-2.44-3.14 2.8a1.4 1.4 0 0 1-2.1-1.4l1.4-4.2-3.5-1.4a1.4 1.4 0 0 1 .7-2.1l3.85-.34 1.05-3.5c.34-1.04 1.74-1.04 2.44-.34l1.4 3.84 3.5-.35c1.04.35 1.39 1.4.69 2.1l-2.8 2.1 1.4 3.83c0 1.05-1.05 2.1-2.1 1.4Zm51.35 534.83c.35.35 23.05 1.05 24.45.35 1.4-.35.35-8.38-5.24-9.43-5.94-.7-6.98 2.8-6.98 2.8s.7-4.9-3.5-4.9c-4.19 0-2.8 5.6-2.1 6.29-1.4 0-8.03 4.54-6.63 4.9Z" />
    <path
      d="M150.91 597.36c3.15.35 4.54 2.44 2.8 4.9-1.75 2.78 0 5.58 2.1 6.63m52.04-34.93-2.44-.7-1.05 2.8a1.04 1.04 0 0 1-1.44.07 1.05 1.05 0 0 1-.3-.43l-.7-2.8h-2.45a1.06 1.06 0 0 1-.63-1.3c.05-.17.15-.32.28-.44l2.1-1.05-.35-2.8a1.06 1.06 0 0 1 .96-.76c.15-.01.3.01.43.07l2.1 1.75 2.1-1.4c.7-.35 1.4.35 1.4 1.05l-1.06 2.44 1.75 1.75c.7.7.35 1.4-.7 1.75ZM-4.55 816.38c-2.44-1.05-9.42-.7-10.12 2.8-.7 3.49 13.27 8.73 15.37 6.28 1.4-2.1-.7-6.63-5.24-9.08ZM375.18 817.1c-1.04-1.06-4.89-7 .7-10.49 1.4-1.05 3.5-.35 5.24 1.05 0-4.54 8.04-7.69 10.48.35 4.54-3.15 11.53 1.4 7.69 6.29 6.63-1.4 8.38 9.78-2.1 10.48a37.41 37.41 0 0 1-3.5 9.08c-1.74 3.14-23.05-3.84-22-7.69 1.4-5.93 2.8-8.03 3.5-9.08ZM190.74 226.71s2.8 1.74 3.84.7c.7-.7-1.4-3.5-1.4-3.5s2.1-2.44 1.75-3.14c-.7-.7-3.15-.35-3.84 0 0 0-1.05-3.15-2.1-3.15-1.4 0-1.4 3.85-1.4 3.85s-3.5.7-3.5 1.74c0 1.05 3.15 2.1 3.15 2.1s-.35 3.5.35 3.84c1.05.35 2.45-1.4 3.15-2.44ZM434.92 499.9a18.87 18.87 0 0 0-12.58 9.43c-5.94 9.78 1.75 20.26 15.38 20.26 10.47 0 19.2-6.29 19.9-13.97.7-7.69-7.33-19.22-22.7-15.72ZM461.12 672.82c-1.75-3.85-10.48-6.64-19.21 2.1-.35-4.2-2.45-14.68-7.34-12.24-4.54 2.1-.7 7-.35 12.93.35 5.94-.35 9.78 2.8 11.18 3.14 1.4 3.84 0 6.98 1.05 5.24 1.4 26.55 5.59 40.88-21.31m-48.21-27.95c-1.75-3.5-5.94-4.54-8.74-4.54-4.19.35-9.08 5.94-9.78 12.58-3.14-2.8-9.78-6.3-11.88-3.5-2.1 2.8 5.6 7.34 8.74 11.88 2.44 3.14 5.94 5.24 7.33 3.5m2.45 12.92c-6.29 1.75-16.77-1.4-24.8-5.24-8.39-3.5-14.33-4.9-16.07-1.75-1.75 3.15 2.1 10.83 16.42 15.02a60.79 60.79 0 0 0 30.74.35m35.28-60.43v2.8m22.7-4.2.36 2.8m-14.33 4.19c0 1.4 3.15 1.04 3.15-1.05.7 2.1 3.14 2.1 3.5 1.05m-26.2 27.25c1.04 1.04 3.48-1.05 3.48-2.45m.35 4.54c1.4-.7 1.75-2.44 2.1-3.5m18.51 7.34c-.7-.7.35-3.14 1.75-3.49m-5.59 1.75c0-1.05 1.4-2.8 2.8-3.15m-41.57 9.43c-1.4.36-1.4 2.1-1.05 3.5m-2.45-3.14c-1.05 1.04-.35 2.79 0 3.49m-24.8-22.7c-.7-.7-2.8 0-2.8 1.39m60.09-36.68-1.75-2.1v3.15m25.5-3.15v-2.8l2.1 3.85m-45.76-237.9c-1.4 11.88-3.15 19.57-3.84 21.66-1.05 2.1 6.63 9.09 6.28 18.52-.35 8.03-4.89 17.81-4.19 20.96.35 2.1 2.8 4.19 1.4 6.63-1.05 1.4-5.94 1.4-7.69-1.4-1.4-2.09-.35-10.47-1.4-13.27l-2.44-4.89m-17.81-81.4c.7-4.53 8.38-16.41 10.82-18.86.7-3.49 2.8-9.43 4.2-10.13.7-.35 3.14 5.24 3.84 6.99 2.1 0 12.23 3.14 14.67 5.59 3.84-2.45 6.29-3.5 6.99-3.5 1.05 0-1.4 8.74-2.45 10.14-1.05 1.4 1.05 10.48.35 13.27-2.1 8.39-5.24 9.08-6.99 16.42m11.53 264.8c0 2.1 2.45 3.84 6.99 3.84 4.54.35 7.34-1.4 6.99-3.15 0-1.74-2.8-4.19-7-4.54-4.53-.35-6.98 1.75-6.98 3.85Zm35.98-1.4c.35 2.1-2.1 3.84-6.63 4.19-4.55.35-7.34-1.05-7.34-2.8 0-2.1 2.8-4.19 6.99-4.89 4.54-1.04 6.98 1.4 6.98 3.5ZM399.3 258.16c1.4-4.54 7.68-6.64 9.78-3.5 3.14 4.2-4.9 17.82-8.03 20.61-3.5 2.8-14.68-12.57-12.58-18.86 1.75-4.2 9.78-3.14 10.83 1.75Z" />
    <path
      d="M425.49 367.15c-8.74.35-16.42 1.75-19.91 1.05-4.2-.7-9.78-6.3 9.43-7.69m39.47 4.54c0 2.1-.7 3.5-1.74 4.2-3.15 1.4-8.39-.35-15.03-1.4m12.93-16.77c1.05 1.05 1.75 2.8 2.44 5.24m-41.56 48.2c-5.94 7-9.09 15.38-10.48 22.72-1.4 7.33-6.3 10.47-12.58 11.87-6.29 1.4-8.38-5.94-1.75-7.33 10.48-2.1 4.54-16.42 20.96-35.29m22.7-81.04 1.06-3.15 1.4 2.1m18.86 7.69 2.44-1.4-1.05 3.14m-22.35 4.2-.7 2.09" />
    <path
      d="m447.15 333.26-.7 2.1m-8.39-4.2.35 1.06m0 0 1.05-.35m-1.05.35-2.8 8.03m28.65 19.56c-.7-.7-3.49 0-3.49 0m.7-2.44c-.35-.35-2.1.35-2.1.35m-53.8 7.68c-1.04 0-2.09 1.05-2.44 1.4m1.75-3.14-2.8.7m25.85 73.35c1.05.7.7 2.45.7 2.45m1.75-3.14c.7.35 1.4 2.1 1.05 2.8m10.48-4.9c.35.35.7 2.1 0 2.8m2.8-2.8c.34.35.69 1.75.34 2.8m-6.99 16.06.7 5.6c.35 2.44-10.13 5.58-23.4 7.33-13.28 1.75-24.46 1.05-24.8-1.05l-.7-5.94m9.43 1.4a129.27 129.27 0 0 1 31.09-3.84M415 466.7l.35 3.5m.35.34c2.1-1.75 4.89-1.4 5.24 1.4.35 2.8-3.15 5.94-4.55 6.29-1.4 0-5.58-2.45-5.93-4.9-.35-2.44 2.8-4.19 5.24-2.79Zm-23.06 159.3c1.4-1.75 3.5-2.1 4.2-1.75.7.35 2.09 1.75 1.04 4.2.35 1.4 3.15 4.54 1.4 6.28-1.75 1.75-4.9 1.75-6.99-1.4-2.44.35-5.24-.7-5.59-3.14-.35-2.44 3.5-4.2 5.94-4.2Zm2.8-9.78c-2.1-.35-3.15 4.89-1.05 5.93 2.1 1.05 4.54-5.58 1.05-6.28v.35Zm4.19 8.03c1.4 1.4 6.29-2.1 4.54-4.54-1.75-1.75-6.29 2.8-4.54 4.54Zm-10.13-.7c-1.05.7-4.2-3.14-2.45-4.89 1.75-1.75 4.54 3.85 2.45 4.9Zm10.83 5.6c.35 1.04 5.59 1.39 4.89-1.4-.7-2.1-5.24-1.4-4.9 1.4Zm-445.4 133.44c-4.55 0-7.69-4.9 5.24-13.63 4.19-2.8 12.92-.35 14.32 5.94 1.4 5.6-1.05 7.69-4.2 7.69h-15.36Z" />
    <path
      d="M-39.13 752.46c4.55-3.14 13.98-9.78 22.01-6.63 8.04 3.14 7.34 12.22 5.94 15.37-1.4 3.14-8.03 4.89-18.16 5.24m19.2-8.39c1.76 1.75 2.8-.35 7 1.4 4.19 1.75 4.54 6.64 8.03 7.69m-23.75-182c1.74 1.4 10.48-2.8 10.48-7.7m-11.88-8.73 3.5 5.25m-3.85-4.9c2.1-1.74 11.53 4.9 15.72 13.28C-.7 590.72.7 596.66.7 596.66c4.2 1.75 7.33 5.94 6.64 7.34-1.05 1.74-6.64-3.85-6.64-3.85 1.4 2.1 2.8 8.39 1.05 8.39-3.15.35-4.2-7.34-4.54-8.74-16.07-5.58-22.01-25.5-17.82-30.74ZM-34.58 111.09c6.98 1.4 27.94-1.05 34.58-2.45 6.64-1.4 11.88-1.05 12.93 2.8 1.04 4.19-11.88 12.22-41.23 12.22M-80 93.62v4.2m-23.4-3.85v4.54m18.16-15.72 1.75-2.8 1.05 3.5m-23.4 0-1.4-2.8-1.05 3.85m16.07 57.64h3.84m-3.84 2.8c1.74.7 3.49 0 3.49 0m-8.73-2.45h3.49m-3.14 2.44c.7.35 3.49.7 4.19 0m81.04-9.78 3.15 1.05m-4.2 1.75 3.5.35m-121.22-.7 3.14-.7m-2.1 2.44 3.15-.34m52.4 29.69c3.5-1.4 11.18-1.75 12.58.7 1.4 2.1-.35 6.63-9.09 7.33-8.73.7-14.67-2.8-13.62-8.73 1.05-5.94 9.78-11.53 22-11.18m.36 42.97c-3.5 2.8-6.64 11.88-3.84 15.72 3.49 4.54 15.72-.35 15.02-4.2-.7-3.84-6.99-3.14-9.78-2.09m4.19-.7c2.8-1.05 4.89-3.84 4.89-4.89m-38.43-107.6c0 3.85 13.63 2.8 13.63-.34 0-3.5-13.63-3.85-13.63.35Zm-24.1.36c0 3.84 13.62 2.8 13.62-.35 0-3.5-13.62-3.85-13.62.35Z" />
    <path
      d="M-77.9 184.8c.7-1.75 3.14 2.1.7 2.8 2.44-1.06 4.19 2.79 2.1 2.44m-9.09-8.74 1.4-.7m-12.23 1.05-1.75 2.1 2.45-.35m9.78 18.86-1.75 1.05h3.15m6.64-7.68 1.4-.7m8.38-37.73c16.77-6.29 30.74-8.03 48.2 1.05 17.47 9.08 21.31 29.7 21.66 38.43.35 8.73-.35 22.35-9.43 36.32-9.08 13.98-13.62 23.06-14.32 28.3-.7 6.64-10.48 6.64-10.48-.7 0-7.33 1.75-15.72 13.97-31.44m-64.97-42.97c3.14-.7-1.75-10.82-4.9-9.43-3.14 1.4 1.05 10.48 4.9 9.44Zm7.68 14.33c3.15-.7-1.74-10.83-4.89-9.44-3.14 1.4 1.05 10.48 4.9 9.44Z" />
    <path
      d="M-8.73 179.2c-6.64-3.48-18.52-1.74-19.57 7-1.04 8.73 9.79 19.9 12.23 22.7 0 3.5-3.84 22.7 2.1 23.4 5.94.7 8.38-16.06 7.68-22.7m-8.38 17.47c-1.4.7-1.4 3.49-1.4 3.49m4.54-3.14c.35.34 1.05 2.44.7 3.14m-15.37 212.4c1.4 4.19 4.54 10.13.35 12.22-4.2 1.75-14.67-10.83-11.53-19.21 3.5-8.04 13.97-6.29 17.47-2.45 2.8 2.8 5.59 11.18 7.68 18.17 3.85 5.24 10.13 12.57 10.83 31.44.35 18.86-1.05 33.53 2.1 46.46 2.1 3.84 4.2 7.33 0 10.13-3.84 2.44-11.53-4.54-18.52-30.4-1.4 5.25-10.13 23.76-15.72 22.71-5.59-1.04.35-11.52.35-11.52" />
    <path
      d="M-61.48 439.46c0 1.75 4.19-1.05 2.8-3.84 2.09 1.4 7.33-2.8 4.53-3.14m7.69-6.64c1.05-3.5 3.84-4.9 4.2-4.9.34 0 2.79 2.1 3.83 4.55m-28.64 18.86c0 .7-5.24 4.2-5.94 5.6-.7 1.39 5.59 3.13 5.59 3.13m39.82-3.14c0 1.75 2.45 3.5 3.5 3.14m-5.94-2.1 1.4 3.85m-48.91 25.85c-1.05.35-2.45 3.15-1.05 4.2m47.5 42.26c-1.04 1.05-1.39 3.85-.69 4.54m-2.44-5.23a4.83 4.83 0 0 0-1.75 3.14m33.19 4.89c1.04 1.05 1.04 3.84 0 5.24m3.49-5.94c.7.35 1.75 2.8 1.4 4.9m-43.67-15.03c-7.34 5.94-19.56 14.67-33.19 16.77-6.98 1.05-7.68-5.6-.7-8.04 7-2.8 20.61-8.03 27.25-16.41m34.94-223.93c1.74-3.14 4.54-4.19 5.58-3.84 1.05.35 3.15 2.1 2.1 5.59.7 1.75 5.24 5.24 3.5 8.38-1.75 3.15-6.3 3.15-9.79-.35-3.14.7-6.98 0-8.38-3.14-1.4-3.14 3.84-6.64 6.99-6.64Zm1.74-14.32c-2.8 0-3.5 7.34-.35 8.38 3.15.7 5.24-8.73.35-8.38Zm7.34 9.78c2.1 1.75 8.03-4.2 4.89-6.64-2.8-2.1-7.34 4.54-4.9 6.64Zm-13.63 1.75c-1.04 1.05-6.63-3.5-4.54-6.29 2.1-2.8 6.99 4.2 4.54 6.29Zm16.07 4.89c.35 1.4 7.34.7 5.94-2.8-1.4-2.8-7.33-.7-5.94 2.8ZM-6.99 84.89s1.75 4.54 3.5 4.19c1.74-.35 1.74-5.24 1.74-5.24s4.54-.35 4.54-1.75-3.14-3.14-4.19-3.49c0 0 1.4-4.2 0-5.24-1.4-1.05-4.19 3.14-4.19 3.14s-4.89-2.1-5.59-1.04c-1.05.7 1.75 4.89 1.75 4.89s-3.84 3.49-3.15 4.89c.7 1.05 3.85.35 5.6-.35ZM287.12 566.41a.14.14 0 1 0 0-.28.14.14 0 0 0 0 .28ZM304.72 562.15c.08 0 .14-.06.14-.14a.14.14 0 1 0-.14.14ZM55.75 518.52a5.52 5.52 0 1 0 0-11.04 5.52 5.52 0 0 0 0 11.04ZM36.89 518.03a5.52 5.52 0 1 0 0-11.04 5.52 5.52 0 0 0 0 11.04Z" />
    <path
      d="M36.65 512.93a.14.14 0 1 0 0-.28.14.14 0 0 0 0 .28ZM55.65 513.14a.14.14 0 0 0 0-.28.14.14 0 0 0 0 .28ZM171.14 514.22a.14.14 0 1 0 0-.28.14.14 0 0 0 0 .28ZM153.46 513.07a.14.14 0 0 0 0-.28.14.14 0 0 0-.14.14c0 .07.06.14.14.14ZM251.35 645.22a.1.1 0 1 0 0-.21.1.1 0 0 0-.11.1c0 .06.05.1.1.1ZM266.2 656.01a.1.1 0 1 0 0-.2.1.1 0 0 0 0 .2ZM268.74 719.77a.18.18 0 1 0 0-.35.18.18 0 0 0 0 .35ZM373.72 577.24a.31.31 0 1 0 0-.63.31.31 0 0 0 0 .63ZM106.58 753.62a17.82 17.82 0 1 0 0-35.64 17.82 17.82 0 0 0 0 35.64ZM248.59 377.28a5.94 5.94 0 1 0 0-11.88 5.94 5.94 0 0 0 0 11.88ZM263.12 392.58a5.94 5.94 0 1 0 0-11.88 5.94 5.94 0 0 0 0 11.88Z" />
    <path
      d="M263.3 386.85a.38.38 0 1 0 0-.77.38.38 0 0 0 0 .77ZM248.76 371.94a.38.38 0 1 0 0-.77.38.38 0 0 0 0 .76ZM109.66 170.72a8.28 8.28 0 1 0 0-16.56 8.28 8.28 0 0 0 0 16.56ZM134.77 161.85a8.28 8.28 0 1 0 0-16.56 8.28 8.28 0 0 0 0 16.56ZM220.29 550.3a6.11 6.11 0 1 0 0-12.22 6.11 6.11 0 0 0 0 12.22ZM269.93 187.9a14.25 14.25 0 1 0 0-28.5 14.25 14.25 0 0 0 0 28.5ZM359.99 84.89a3.32 3.32 0 1 0 0-6.64 3.32 3.32 0 0 0 0 6.64ZM100.96 237.2a2.8 2.8 0 1 0 0-5.6 2.8 2.8 0 0 0 0 5.6ZM79.54 315.83a2.65 2.65 0 1 0 0-5.3 2.65 2.65 0 0 0 0 5.3ZM92.75 490.81a3.32 3.32 0 1 0 0-6.63 3.32 3.32 0 0 0 0 6.63ZM304.97 470.55a3.5 3.5 0 1 0 0-6.98 3.5 3.5 0 0 0 0 6.98ZM209.18 21.03a.8.8 0 1 0 0-1.6.8.8 0 0 0 0 1.6ZM21.83 2.27a2.62 2.62 0 1 0 0-5.24 2.62 2.62 0 0 0 0 5.24ZM79.3 409.49a17.82 17.82 0 1 0 0-35.63 17.82 17.82 0 0 0 0 35.63ZM267.24 621.81a3.5 3.5 0 1 0 0-6.98 3.5 3.5 0 0 0 0 6.98ZM139.38 124.01a3.5 3.5 0 1 0 0-6.98 3.5 3.5 0 0 0 0 6.98ZM262.87 73.43a2.76 2.76 0 1 0 0-5.52 2.76 2.76 0 0 0 0 5.52ZM40.52 603.65a3.14 3.14 0 1 0 0-6.3 3.14 3.14 0 0 0 0 6.3ZM159.32 513.13c.07-1.9-2.5-3.54-5.74-3.66-3.24-.11-5.92 1.35-5.99 3.25-.06 1.91 2.5 3.55 5.75 3.67 3.24.1 5.92-1.35 5.98-3.25ZM176.93 514.6c.06-1.91-2.5-3.55-5.75-3.67-3.24-.11-5.92 1.35-5.98 3.25-.07 1.91 2.5 3.55 5.74 3.67 3.24.1 5.92-1.35 5.99-3.26ZM163.17 684.79c3.23-.75 5.7-2.04 5.5-2.89-.2-.84-2.97-.92-6.2-.18-3.24.75-5.7 2.04-5.5 2.89.19.84 2.97.92 6.2.18ZM143.37 689.52c3.24-.75 5.7-2.04 5.5-2.89-.2-.84-2.97-.92-6.2-.18-3.24.75-5.7 2.04-5.5 2.89.19.84 2.97.92 6.2.18ZM90.9 445.75c3.66 0 6.63-1.4 6.63-3.14 0-1.74-2.97-3.15-6.63-3.15-3.67 0-6.64 1.4-6.64 3.15 0 1.73 2.97 3.14 6.64 3.14ZM114.1 445.75c3.66 0 6.63-1.4 6.63-3.14 0-1.74-2.97-3.15-6.64-3.15-3.66 0-6.64 1.4-6.64 3.15 0 1.73 2.98 3.14 6.64 3.14ZM307.7 500.34c.31-1.8-.59-3.47-2.01-3.72-1.43-.25-2.84 1-3.16 2.81-.32 1.8.58 3.47 2 3.72 1.43.25 2.84-1 3.16-2.8ZM315.12 505.16c1.23-1.36 1.35-3.25.28-4.22-1.08-.97-2.94-.65-4.17.71-1.23 1.36-1.35 3.25-.27 4.22 1.07.97 2.94.65 4.16-.71ZM318.61 512.03c1.55-.75 2.32-2.35 1.73-3.56-.6-1.21-2.33-1.59-3.87-.83-1.54.75-2.31 2.34-1.72 3.56.59 1.21 2.32 1.58 3.86.83ZM298.2 505.3c1.25-.51 1.75-2.21 1.1-3.8-.64-1.6-2.18-2.48-3.43-1.97-1.25.5-1.74 2.2-1.1 3.8.64 1.6 2.18 2.47 3.43 1.97ZM42.64 331.88c1.1-3.2-.15-6.52-2.8-7.43-2.64-.91-5.67.94-6.77 4.13-1.1 3.2.15 6.52 2.8 7.43 2.64.9 5.68-.94 6.77-4.13ZM59.06 337.12c1.1-3.2-.15-6.52-2.8-7.43-2.64-.91-5.68.94-6.78 4.13-1.1 3.2.16 6.52 2.8 7.43 2.65.9 5.68-.94 6.78-4.13ZM299.73 223.57c8.3 0 15.02-1.4 15.02-3.14 0-1.74-6.73-3.15-15.02-3.15-8.3 0-15.02 1.41-15.02 3.15s6.72 3.14 15.02 3.14ZM21.93 461.14c13.31-1.63 23.87-4.82 23.59-7.11-.28-2.3-11.3-2.84-24.6-1.2-13.32 1.63-23.88 4.82-23.6 7.11.29 2.3 11.3 2.84 24.61 1.2ZM215.64 286.14c3.36 0 6.08-1.1 6.08-2.45s-2.72-2.44-6.08-2.44c-3.35 0-6.07 1.1-6.07 2.44 0 1.35 2.72 2.45 6.07 2.45ZM196.08 286.1c3.36 0 6.08-1.1 6.08-2.44 0-1.35-2.72-2.45-6.08-2.45s-6.08 1.1-6.08 2.45 2.72 2.44 6.08 2.44ZM32.48 41.42c.06-1.15-1.6-2.18-3.72-2.3-2.12-.1-3.9.74-3.95 1.9-.06 1.16 1.6 2.18 3.73 2.3 2.12.1 3.88-.74 3.94-1.9ZM20.95 40.72c.07-1.15-1.6-2.18-3.72-2.29-2.12-.11-3.89.74-3.95 1.9-.06 1.15 1.6 2.17 3.73 2.29 2.12.1 3.88-.74 3.94-1.9ZM146.02 627.58c11.33 0 20.5-1.5 20.5-3.36 0-1.85-9.17-3.35-20.5-3.35-11.32 0-20.5 1.5-20.5 3.35 0 1.86 9.18 3.36 20.5 3.36ZM145.85 635.58c9.76 0 17.67-1.13 17.67-2.52 0-1.39-7.91-2.51-17.67-2.51-9.77 0-17.68 1.12-17.68 2.51 0 1.4 7.91 2.52 17.68 2.52ZM235.66 31.87c2.96-7.33 2.7-14.35-.6-15.68-3.29-1.33-8.36 3.53-11.32 10.87-2.96 7.33-2.7 14.36.6 15.69 3.28 1.33 8.35-3.54 11.32-10.88Z" />
    <path
      d="M230.35 29.67c.73-1.8.78-3.49.12-3.75-.66-.27-1.79.98-2.52 2.78-.73 1.81-.78 3.5-.12 3.76.66.27 1.79-.98 2.52-2.79ZM414.47 460.74c13.31-1.63 23.87-4.82 23.59-7.12-.28-2.3-11.3-2.84-24.61-1.2-13.31 1.63-23.87 4.82-23.59 7.12.28 2.3 11.3 2.83 24.61 1.2Z" />
  </g>
</svg>