<svg xmlns="http://www.w3.org/2000/svg" width="74" height="74" viewBox="0 0 1000 1000">
  <defs>
    <linearGradient id="LogoGradient" x1="500" x2="500" y1="-2.94" y2="991.18"
      gradientUnits="userSpaceOnUse">
      <stop offset="0" stop-color="#4a5197" />
      <stop offset=".49" stop-color="#a92c80" />
      <stop offset=".83" stop-color="#e71372" />
      <stop offset="1" stop-color="#ff0a6c" />
    </linearGradient>
  </defs>
  <g>
    <path d="M0 0h1000v1000H0z" style="fill:url(#LogoGradient)" />
    <path
      d="M315.8 289.21c116.1-82.33 281.92-75.6 389.26 15.93 109.19 93.17 124.1 245.29 34.3 354.27-84.59 102.64-237.16 136.46-364.18 83.52l-6.94-3L238 767.64l-1.19.18-1 .21h-.54l-.65.15h-1.14l-1 .12h-1.31l-1-.09h-1l-.66-.12-.65-.06-1-.21-1-.15-.47-.12-.72-.14-1.46-.48-.71-.15-.33-.15-.66-.21-1.34-.59-.89-.36-.33-.18-.41-.18-.93-.53-1.34-.72-.47-.33-1.1-.77-1.2-.8-.05-.12-.39-.27-1.28-1.19-.75-.6-.18-.21-1.66-1.84-.39-.42-.33-.42-1.16-1.66-.42-.57-.14-.3-1.25-2.17-.21-.36-.12-.24-.21-.35-.42-1.13-.59-1.25-.12-.48-.12-.3-.51-1.82-.21-.53-.06-.45-.14-.56-.15-1-.24-1.25-.06-.92-.09-.3v-.47l-.12-1.61v-1.76l.06-1.58.12-.74v-.57l.24-1 .15-1 .14-.6.12-.59.54-1.79.09-.39 34.24-102.72-.65-1.1c-65.81-111.57-36-249.85 71.84-331.08Z"
      style="fill:#fff" />
  </g>
</svg>