<svg width="74" height="75" viewBox="0 0 74 75" fill="none" xmlns="http://www.w3.org/2000/svg">
  <path
    d="M12.3285 0.500008H21.5785C23.1987 0.498109 24.8034 0.815594 26.3009 1.43431C27.7983 2.05302 29.1591 2.96084 30.3054 4.10583C31.4518 5.25083 32.3612 6.61056 32.9817 8.10726C33.6021 9.60397 33.9215 11.2083 33.9215 12.8285V22.0785C33.9234 23.7 33.6054 25.3058 32.9858 26.8042C32.3662 28.3026 31.4571 29.664 30.3106 30.8106C29.164 31.9571 27.8026 32.8662 26.3042 33.4858C24.8058 34.1054 23.2 34.4234 21.5785 34.4215H12.3285C10.7083 34.4215 9.10397 34.1021 7.60726 33.4817C6.11056 32.8612 4.75083 31.9518 3.60583 30.8054C2.46084 29.6591 1.55302 28.2983 0.934309 26.8009C0.315594 25.3034 -0.00189097 23.6987 8.47271e-06 22.0785V12.8285C8.47271e-06 9.5588 1.2989 6.42299 3.61095 4.11095C5.92299 1.7989 9.0588 0.500008 12.3285 0.500008ZM52.4215 0.500008H61.6715C64.9412 0.500008 68.077 1.7989 70.3891 4.11095C72.7011 6.42299 74 9.5588 74 12.8285V22.0785C74.0019 23.6987 73.6844 25.3034 73.0657 26.8009C72.447 28.2983 71.5392 29.6591 70.3942 30.8054C69.2492 31.9518 67.8895 32.8612 66.3928 33.4817C64.896 34.1021 63.2917 34.4215 61.6715 34.4215H52.4215C50.8001 34.4234 49.1942 34.1054 47.6958 33.4858C46.1974 32.8662 44.836 31.9571 43.6895 30.8106C42.5429 29.664 41.6338 28.3026 41.0142 26.8042C40.3946 25.3058 40.0766 23.7 40.0785 22.0785V12.8285C40.0785 11.2083 40.3979 9.60397 41.0184 8.10726C41.6388 6.61056 42.5482 5.25083 43.6946 4.10583C44.8409 2.96084 46.2017 2.05302 47.6991 1.43431C49.1966 0.815594 50.8013 0.498109 52.4215 0.500008ZM12.3285 40.5785H21.5785C23.2 40.5766 24.8058 40.8946 26.3042 41.5142C27.8026 42.1338 29.164 43.0429 30.3106 44.1895C31.4571 45.336 32.3662 46.6974 32.9858 48.1958C33.6054 49.6942 33.9234 51.3001 33.9215 52.9215V62.1715C33.9215 63.7917 33.6021 65.396 32.9817 66.8928C32.3612 68.3895 31.4518 69.7492 30.3054 70.8942C29.1591 72.0392 27.7983 72.947 26.3009 73.5657C24.8034 74.1844 23.1987 74.5019 21.5785 74.5H12.3285C10.7095 74.5 9.10637 74.1811 7.61061 73.5616C6.11484 72.942 4.75576 72.0339 3.61095 70.8891C1.2989 68.577 8.47271e-06 65.4412 8.47271e-06 62.1715V52.9215C-0.00189097 51.3013 0.315594 49.6966 0.934309 48.1991C1.55302 46.7017 2.46084 45.3409 3.60583 44.1946C4.75083 43.0482 6.11056 42.1388 7.60726 41.5184C9.10397 40.8979 10.7083 40.5785 12.3285 40.5785ZM52.4215 40.5785H61.6715C63.2917 40.5785 64.896 40.8979 66.3928 41.5184C67.8895 42.1388 69.2492 43.0482 70.3942 44.1946C71.5392 45.3409 72.447 46.7017 73.0657 48.1991C73.6844 49.6966 74.0019 51.3013 74 52.9215V62.1715C74 65.4412 72.7011 68.577 70.3891 70.8891C68.077 73.2011 64.9412 74.5 61.6715 74.5H52.4215C50.8013 74.5019 49.1966 74.1844 47.6991 73.5657C46.2017 72.947 44.8409 72.0392 43.6946 70.8942C42.5482 69.7492 41.6388 68.3895 41.0184 66.8928C40.3979 65.396 40.0785 63.7917 40.0785 62.1715V52.9215C40.0766 51.3001 40.3946 49.6942 41.0142 48.1958C41.6338 46.6974 42.5429 45.336 43.6895 44.1895C44.836 43.0429 46.1974 42.1338 47.6958 41.5142C49.1942 40.8946 50.8001 40.5766 52.4215 40.5785Z"
    fill="#1F1F1F" />
</svg>