<svg xmlns="http://www.w3.org/2000/svg" viewBox="0 0 56 56">
  <path fill="#f8d56f" fill-rule="evenodd"
    d="m18.4 16.1 6.7-13.4a3.3 3.3 0 0 1 4.2-1.4 3.2 3.2 0 0 1 1.4 1.4l6.4 13a3.4 3.4 0 0 0 2.7 1.9l13.3 1.6a3.4 3.4 0 0 1 2.9 3.7 4.2 4.2 0 0 1-1 2L44.5 35.3a2.3 2.3 0 0 0-.6 1.6l1.8 14a3.8 3.8 0 0 1-3.2 4.1 4.3 4.3 0 0 1-2.2-.4l-11.1-6.1a2.7 2.7 0 0 0-2.6-.1l-11.5 6a3.5 3.5 0 0 1-4.5-1.5 3.4 3.4 0 0 1-.3-2l.9-6.4a9.8 9.8 0 0 1 5.3-7.3l12.8-6.6c.3-.1.4-.6.3-.9a.9.9 0 0 0-.8-.4l-15.6 2.3a9 9 0 0 1-6.7-1.9l-5.2-4.2a3.6 3.6 0 0 1-.5-5A3 3 0 0 1 3 19.3l13.4-1.7a2.6 2.6 0 0 0 2-1.5Z" />
</svg>